<svg version="1" xmlns="http://www.w3.org/2000/svg" width="933.333" height="933.333" viewBox="0 0 700.000000 700.000000"><path d="M189.2 76.7c-1.2.2-3.2 1.8-4.5 3.5-1.2 1.6-3.9 3.9-5.9 4.9-2.2 1.1-4.4 3.3-5.3 5.3-1.2 2.4-2.7 3.7-5.5 4.6-2.2.7-4.1 1.8-4.1 2.4-.1.6-.2 1.8-.3 2.6 0 .8-.7 1.4-1.4 1.2-3.1-.6-15.2 10.9-15.2 14.6 0 1.1-.6 2.7-1.3 3.4-3.1 3.1-6.2 11.3-4.9 13.2 1.3 2.2 1.2 9.7-.3 13.2-1.9 4.7-1.9 6.9.2 10.1 1 1.5 1.8 4.9 1.9 8.3l.2 5.8-3.8.6c-4.7.7-10.4 6.7-9.6 10 .3 1.1.8 4 1.2 6.3.5 3 2.3 6.3 6.8 12 7.2 9.1 8.4 12.8 7.9 25.3-.2 5.5.2 10.2 1.2 13.7 1.8 6.3 4 7.9 14.9 11.4 3.9 1.2 8.2 2.9 9.5 3.8 2 1.3 8.6 1.6 43.7 1.8 40 .2 41.5.3 45.6 2.4 2.4 1.2 6.7 2.3 9.7 2.5 3.8.2 6.5 1.1 9.3 3 2.6 1.9 5 2.7 7.5 2.6 2.1-.1 5 .7 6.8 1.8 1.8 1.1 4.1 2 5.1 2 1.1 0 3.6.9 5.7 2 2.3 1.2 5.6 2 8.7 2 4.6 0 5.6.4 9.8 4.3 2.6 2.3 6.7 5.6 9.2 7.1 2.5 1.6 6.3 4.7 8.5 7s6.8 5.6 10.1 7.3c8.6 4.6 16.4 14.7 16.4 21.2 0 1.6 6.5 16.8 9.1 21.1.5.8 2.1 3.5 3.5 5.8 3.5 5.7 5.3 10.8 5.4 15.4 0 3 .6 4 3.4 5.7 6.2 3.8 10.2 9.3 13 17.8 3.5 10.6 4 13.4 4 23 0 6.7-.4 8.7-2 10.5-1.7 2-1.6 2 1-.2 2.6-2.3 2.8-2.3 2.4-.5-.3 1.9-5.5 5.1-6.6 4-.2-.2-2.4 1-4.8 2.7-4.5 3.2-8.7 8.6-9.9 12.6-.4 1.3-2.6 4.7-5 7.6-12.1 14.8-13 20.2-5 27.6 7.5 7 13.7 18.6 15.1 28.3 1.2 8.5 3.6 20.4 5.5 26.6 2.1 7 2.5 15.7.9 21.1-.6 1.9-1.5 6.9-2 11-.9 6.7-.8 8.1.9 11.6 1.1 2.3 3.2 4.6 4.8 5.3 10.7 4.8 19.6 14.4 24.5 26.5 5 12.1 7.3 15.3 13.6 18.6 6.5 3.3 10.9 7 14.1 11.7 2.7 4 5.3 4.2 16.4 1.4 13.3-3.4 17.9-7.5 25.1-22.4 8.9-18.4 8.9-18.4 8.4-34.1-.5-13.8-.6-14.3-4.5-23.1-5.6-12.7-7.8-22-7.8-34.1 0-9.8 0-10-2.2-9.6-1.7.3-2.3 0-2.3-1.2 0-1-.4-1.4-1-1.1-.5.3-1-.1-1-1 0-.8-.4-2.3-.9-3.3-.5-.9-1.2-2.5-1.5-3.5-.6-2-2.6-2.3-2.6-.4 0 .8-.9 2.2-2 3.2-2 1.8-2.1 1.8-4.8-.2-2.4-1.8-2.7-2.8-3-8.4-.3-5.3 0-6.7 1.6-8 1.1-.8 2.3-3.3 2.6-5.6.7-3.6 1.1-4.1 4.7-5.2 2.2-.7 3.9-1.8 3.9-2.6 0-2.9 3.3-8.3 6.1-9.9 1.6-1 3.8-3.5 4.9-5.6 1.1-2.1 2.9-4.1 3.9-4.5 2.1-.6 6.1 1 6.1 2.5 0 .4 1.4 1.1 3 1.5 3.5.8 8 5.1 8 7.7 0 1 1.4 2.7 3 4 2.4 1.7 3 2.9 3 5.9 0 4.5-2.3 6.8-5 5.1-1.4-.9-1.9-.8-2.4.4-2 5.2 1.6 4.4 12-2.5 12.5-8.4 14.6-10.3 22.4-21.6 11.2-16.1 12.3-18.8 12.3-31.4-.1-15-.8-17.7-11.7-44.1-3.1-7.5-6.6-17.6-7.8-22.5-1.3-5-2.6-9.2-3-9.3-.5-.2-.8-1-.8-1.7 0-.8-1-1.6-2.2-1.8l-2.3-.4 2.3-.2c2.1-.1 2.3-.4 1.7-3.4-.4-1.7-1.1-3.6-1.6-4.1-.5-.6-.9-1.9-.9-2.9 0-2.4-3.6-5.7-6.1-5.7-1 0-2.6.8-3.6 1.9-2.2 2.3-6.3 4.4-7 3.7-.3-.3.5-2.2 1.8-4.1 2.3-3.4 2.7-3.6 7.4-3.4 7.3.2 7.2.3 7.3-4.7.2-4.6 1.9-8.7 5.5-13.6 1.7-2.3 1.9-3.3 1.1-7-1.3-6 2.2-13 8.7-17 3.7-2.3 5.1-4.2 7.6-9.6 2.6-5.7 3.1-7.7 2.9-13.4-.3-7-2.2-10.8-5.4-10.8-.8 0-3.1-.9-5.1-1.9-10.4-5.5-22.7-7.1-35.1-4.5-9.4 2-12.9 1.7-22.7-1.5-5.8-1.8-12.2-3-18.7-3.5-11.5-.8-12.4-1.1-39.1-11.8-5-2-11-2.1-24.1-.2-5 .7-11.3-2-13-5.6-5.5-11.8-5.9-12.4-11.8-15.7-3.2-1.8-6.5-3.3-7.2-3.3-.8 0-3.2-.9-5.4-2s-5.2-2-6.7-2-4.4-1-6.3-2.2c-7.5-4.8-16.4-8.7-17.6-7.7-.8.7-1.3.3-1.7-1.3-.4-1.2-.9-1.9-1.3-1.6-.3.4-1.5-.1-2.5-1.1-1.1-1-4.3-3-7.2-4.5-2.9-1.4-8.5-5.8-12.5-9.6-4.1-4-8.1-7-9.3-7-1.1 0-3-1-4.2-2.3-2.6-2.7-9.2-6.7-11.1-6.7-1.4 0-10.6-9.4-10.6-10.8 0-.5-2.8-2.3-6.3-4-5.7-2.8-6.5-3.6-8.7-8.6-1.3-3.1-3-5.6-3.7-5.6-.7 0-1-.6-.8-1.3.3-.6-1.2-3.5-3.3-6.2-5.2-6.9-8.2-12.2-8.2-14.6 0-3.9-6.5-11.6-12-14.3-.8-.4-2.6-1.3-4-2.1-1.9-1.1-2.6-1.1-3.2-.2-.6.9-1 .9-1.6 0-.4-.6-3.9-1.9-7.7-2.7-3.9-.9-9.5-2.7-12.5-4-11-4.7-14.9-5.7-18.8-4.9zM390 366.4c-.7.7-1.4.6-2.2-.2-1-1-1-1.5.2-2.2 1.7-1.1 3.4 1 2 2.4z"/><path d="M334.5 358.2c-1.6.6-3.5 1.6-4.1 2.2-.6.6-3.9 1.7-7.3 2.5-4 .9-6.5 2-6.8 3-.8 2.6-6.5 13.2-9 16.9-2.3 3.5-2.9 7.6-1.4 10 .7 1.1 1.7 1.1 5.6-.2 2.6-.9 6.1-1.6 7.9-1.4 1.7.1 4.7 0 6.6-.2l3.5-.3-4-.8c-3.5-.6-3.2-.7 2-.5 4.1.2 8.4 1.3 13.5 3.4 4.1 1.7 9.2 3.4 11.3 3.7 2 .3 3.7 1 3.7 1.5 0 .6-1.7 1.1-3.7 1.2-3.6.1-3.7.1-.6.5 4.5.6 12.6-3.2 16.7-7.8 3.9-4.3 6-10.4 5-14.6-1.7-6.6-8-13.9-15.7-18.1-3.4-1.8-5.7-2.2-12.2-2.1-4.4 0-9.3.5-11 1.1zm-23.1 26.4c1.3 3.3.6 6.2-1.6 6.7-2.8.8-3.8.1-3.8-2.4 0-4.7 4-7.9 5.4-4.3z"/><path d="M330.8 391.7c.7.3 1.6.2 1.9-.1.4-.3-.2-.6-1.3-.5-1.1 0-1.4.3-.6.6zM337 394.1c1.9 1.2 4.3 2.8 5.3 3.7.9.8 1.7 1.2 1.7.9 0-1-8.1-6.7-9.4-6.7-.6 0 .5 1 2.4 2.1zM508 482.2c0 .9.5 2 1.1 2.3 1.7 1.1 1.8.2.3-1.9-1.2-1.7-1.4-1.7-1.4-.4z"/></svg>