<svg version="1" xmlns="http://www.w3.org/2000/svg" width="933.333" height="933.333" viewBox="0 0 700.000000 700.000000"><path d="M189.5 76.7c-1.1.3-3.4 2-5.1 3.8-1.7 1.8-4.5 4-6.2 4.9-1.7.9-3.7 2.8-4.4 4.3-.7 1.6-3.1 3.7-5.3 4.8l-4.4 2.2c-.2.1-.4 1.3-.5 2.5-.1 1.3-.7 2.2-1.4 2-3.3-.6-15.5 11.3-15.7 15.4 0 1.4-.6 2.8-1.2 3.2-2 1.3-5.5 10.2-4.7 12 1.4 3.3 1.4 9.3-.1 13.5-1.9 5.5-1.9 6.9.4 10.9 1.3 2.2 1.9 5 1.8 8.2-.2 4.8-.3 5-3.7 5.9-3.6.9-7.5 3.8-9.1 7-.6 1.1-.5 3.8.3 7.7 1 4.9 2.3 7.4 7 13.3 3.2 4 6.3 9 6.9 11.2.6 2.2 1.2 9.4 1.3 16 .2 15 1.4 17.6 9 21 2.9 1.3 7.2 2.9 9.6 3.5 2.4.6 5.4 1.9 6.8 2.8 2.2 1.5 7.5 1.7 43.9 1.9 39.9.3 41.5.4 45.6 2.4 2.3 1.2 6.6 2.3 9.6 2.5 3.8.2 6.5 1.1 9.3 3 2.6 1.9 5 2.7 7.5 2.6 2.1-.1 5 .7 6.8 1.8 1.8 1.1 4.1 2 5.1 2 1.1 0 3.6.9 5.7 2 2.3 1.2 5.6 2 8.7 2 4.6 0 5.5.4 9.8 4.3 2.6 2.4 6.9 5.9 9.6 7.7 2.7 1.8 6.6 5 8.7 7.1 2.1 2.1 6.4 5.2 9.6 6.8 8.5 4.3 16.1 14.3 16.3 21.4 0 1 1.5 4.8 3.4 8.5 1.8 3.7 3.7 7.8 4.1 9.2.4 1.4 1.7 3.8 3 5.5 4 5.3 6.5 11.2 7.1 16.9.6 5 1 5.8 4.6 8.2 6.3 4.4 9.4 8.7 12.2 17.1 3.5 10.6 4 13.4 4 23 0 6.7-.4 8.7-2 10.5-1.8 2.2-1.7 2.1.9-.1 2.5-2.3 3.6-2 1.9.5-1 1.6-5.1 3.6-6 3-.5-.3-3 1.2-5.8 3.2-3.5 2.7-5.8 5.6-7.9 9.9-1.6 3.4-4.6 8-6.5 10.4-11.5 14.1-12.4 19.6-4.5 26.9 4.4 4 11.2 14.1 12.8 19 .8 2.5 2 8.1 2.7 12.5 1.3 8.9 3.2 17.5 5.5 24.9 1.7 5.7 2 14.6.5 19.6-.6 1.9-1.5 6.8-2.1 10.9-1.4 9.8.4 14.2 7 17.6 11.2 5.7 18.9 14.6 24.1 27.7 4.2 10.5 6.2 13.3 11.3 16 6.9 3.4 12.5 7.8 15.2 11.9 3 4.7 5.2 4.9 16.8 2 14.6-3.8 20.4-9.8 28.7-29.6 5.4-13.1 5.2-12.1 4.8-26.9-.4-14-.4-14.2-4.5-23.1-5.7-12.7-7.8-22-7.8-34.1 0-9.9 0-10-2.2-9.6-1.7.3-2.3 0-2.3-1.2 0-1-.4-1.4-1-1.1-.5.3-1-.3-1-1.4 0-1.1-.4-2.3-1-2.6-.5-.3-1-1.7-1-3.1 0-1.5-.6-2.4-1.5-2.4-.8 0-1.5.6-1.5 1.3 0 .8-.9 2.2-2 3.2-2 1.8-2.1 1.8-4.8-.2-2.3-1.7-2.7-2.8-3-8.1-.2-4.9.1-6.5 1.6-8 1.1-1.1 2.2-3.6 2.6-5.7.6-3.1 1.3-3.9 4.7-5.3 2.1-.8 3.9-2.1 3.9-2.8 0-2.8 3.3-8 6-9.6 1.6-.9 3.8-3.4 4.9-5.6 1.8-3.6 3.7-5.2 6.1-5.2.5 0 2.1 1.1 3.6 2.5s3.5 2.5 4.5 2.5c2.2 0 6.9 4.9 6.9 7.2 0 1 1.4 2.7 3 4 2.4 1.7 3 2.9 3 5.9 0 4.5-2.3 6.8-5 5.1-1.4-.9-1.9-.8-2.4.4-2 5.2 1.6 4.4 12-2.5 12.4-8.2 14.5-10.3 22.4-21.6 11.2-16.1 12.3-18.8 12.3-31.4-.1-14.9-.8-17.6-11.6-44.1-3.1-7.4-6.6-17.6-7.9-22.5-1.3-5-2.6-9.2-3-9.3-.5-.2-.8-1-.8-1.7 0-.8-1-1.6-2.2-1.8l-2.3-.4 2.3-.2c2.1-.1 2.3-.4 1.7-3.4-.4-1.7-1.1-3.6-1.6-4.1-.5-.6-.9-1.8-.9-2.8 0-4.5-8.2-8.2-9.7-4.3-.6 1.8-6.2 5-7 4.1-.3-.3.5-2.2 1.8-4.1 2.3-3.4 2.7-3.6 7.4-3.4 7.3.2 7.2.3 7.3-4.7.2-4.9 2.2-9.5 5.5-13.2 1.9-2 2-2.8 1.1-7.1-.7-3.2-.7-5.4 0-6.7 3.2-5.9 6.1-9.3 9.3-11 2.7-1.5 4.3-3.5 6.8-8.9 2.9-6.1 3.3-7.9 3.1-13.7-.3-7-2.2-10.8-5.4-10.8-.8 0-3.1-.9-5.1-1.9-10.8-5.7-22.3-7.2-35.1-4.5-9.3 1.9-12.9 1.7-21.7-1.2-4.7-1.6-12.8-3.1-20.3-3.9-12.7-1.4-12.9-1.5-38.2-11.6-6.1-2.4-11.7-2.7-19.6-1-5.1 1.1-7.1 1.2-10.5.1-4.5-1.3-8.7-5.1-8.7-7.8-.1-4-4.7-9.7-10.4-13-3.2-1.7-6.5-3.2-7.2-3.2-.8 0-3.2-.9-5.4-2s-5-2-6.2-2c-1.3 0-3.9-.9-5.8-1.9-12.1-6.7-17.5-9-18.7-7.9-1 .8-1.3.7-1.3-.4 0-1.4-6.2-5.9-13-9.3-1.9-1-6.8-4.9-10.8-8.7-4.5-4.2-8.4-7.1-10.3-7.5-1.7-.3-3.3-1.2-3.6-1.9-.5-1.5-8.9-6.4-10.8-6.4-1.4 0-10.5-9.4-10.5-11 0-.5-2.7-2.2-6-3.7-5.4-2.5-6.2-3.3-8.7-8.5-1.5-3.2-3.3-5.8-4-5.8-.7 0-1-.6-.8-1.3.3-.6-1.2-3.5-3.3-6.2-5.2-6.9-8.2-12.2-8.2-14.6 0-3.9-6.5-11.6-12-14.3-.8-.4-2.6-1.3-4-2.1-1.9-1.1-2.6-1.1-3.3-.2-.7.9-1 .9-1.3 0-.3-.7-4-2-8.2-2.9-4.2-.9-9.8-2.7-12.4-4-2.6-1.3-5.4-2.4-6.2-2.4-.7 0-2.7-.7-4.2-1.5-2.9-1.5-4.3-1.6-7.9-.8zm200.6 288.8c-.1 1.5-2.4 1.2-2.9-.3-.3-.9.2-1.3 1.2-1 1 .1 1.7.7 1.7 1.3z"/><path d="M332 359.4c-2.5 1.2-6.8 2.8-9.7 3.5-4.9 1.2-5.2 1.5-8.2 7.5-1.6 3.4-4.4 8.2-6 10.6-2.1 3-3.1 5.7-3.1 8.3 0 4.3 1.7 5.5 5.2 3.6 1.4-.8 6.2-1.2 12.6-1.2 11.1.1 12.3-.4 4.5-1.7l-4.8-.8 4.3-.1c2.8-.1 7.1 1.1 12.5 3.3 4.5 1.8 9.9 3.6 12 4 5.3 1 4.6 2.6-1.2 2.6-3.7 0-5.6-.6-7.8-2.4-2.9-2.4-6.7-4.6-7.8-4.6-.4 0 2.1 1.9 5.6 4.2 5.5 3.7 6.9 4.2 11.2 4 2.7-.1 6.8-1 9.1-2 7.9-3.6 14.6-13.7 13.2-20.2-.8-4.3-6.2-12.5-10.1-15.5-5.7-4.3-9.8-5.5-18.7-5.5-6.7 0-9.2.5-12.8 2.4zm-20.6 25.2c1.3 3.3.6 6.2-1.6 6.7-2.7.8-3.8.1-3.8-2.4 0-4.4 4.1-7.7 5.4-4.3zM508 482.2c0 .9.5 2 1.1 2.3 1.7 1.1 1.8.2.3-1.9-1.2-1.7-1.4-1.7-1.4-.4z"/></svg>