<?xml version="1.0" encoding="UTF-8" standalone="no"?>
<!-- Created with Inkscape (http://www.inkscape.org/) -->

<svg
   xmlns:dc="http://purl.org/dc/elements/1.1/"
   xmlns:cc="http://creativecommons.org/ns#"
   xmlns:rdf="http://www.w3.org/1999/02/22-rdf-syntax-ns#"
   xmlns:svg="http://www.w3.org/2000/svg"
   xmlns="http://www.w3.org/2000/svg"
   xmlns:sodipodi="http://sodipodi.sourceforge.net/DTD/sodipodi-0.dtd"
   xmlns:inkscape="http://www.inkscape.org/namespaces/inkscape"
   width="379.38791mm"
   height="379.38791mm"
   viewBox="0 0 379.3879 379.38792"
   version="1.1"
   id="svg18410"
   inkscape:version="0.92.4 (5da689c313, 2019-01-14)"
   sodipodi:docname="fb-logo.svg"
   inkscape:export-filename="D:\Documents\GitHub\MaraVilla\img\fb-logo.png"
   inkscape:export-xdpi="96"
   inkscape:export-ydpi="96">
  <defs
     id="defs18404" />
  <sodipodi:namedview
     id="base"
     pagecolor="#ffffff"
     bordercolor="#666666"
     borderopacity="1.0"
     inkscape:pageopacity="0.0"
     inkscape:pageshadow="2"
     inkscape:zoom="0.49497475"
     inkscape:cx="741.07628"
     inkscape:cy="673.71792"
     inkscape:document-units="mm"
     inkscape:current-layer="layer3"
     showgrid="false"
     inkscape:window-width="1920"
     inkscape:window-height="1017"
     inkscape:window-x="-8"
     inkscape:window-y="-8"
     inkscape:window-maximized="1" />
  <metadata
     id="metadata18407">
    <rdf:RDF>
      <cc:Work
         rdf:about="">
        <dc:format>image/svg+xml</dc:format>
        <dc:type
           rdf:resource="http://purl.org/dc/dcmitype/StillImage" />
        <dc:title></dc:title>
      </cc:Work>
    </rdf:RDF>
  </metadata>
  <g
     inkscape:groupmode="layer"
     id="layer3"
     inkscape:label="Circle"
     style="display:inline"
     transform="translate(21.916092,33.675934)">
    <rect
       style="fill:#03d6d6;fill-opacity:1;stroke-width:0.26458332"
       id="rect819"
       width="400"
       height="400"
       x="-27.261482"
       y="-43.966995" />
  </g>
  <g
     inkscape:groupmode="layer"
     id="layer2"
     inkscape:label="Island"
     transform="translate(21.916092,33.675934)">
    <path
       transform="translate(55.110147,-163.83069)"
       style="fill:#ce4545;fill-opacity:1;fill-rule:evenodd;stroke:none;stroke-width:0.35277775"
       d="m 177.41875,399.52411 -0.0124,-1.99954 0.0303,-2.05741 0.66146,-1.00596 1.53238,-0.678 -0.24667,-1.27468 0.15572,-0.63803 0.73863,-2.69683 2.68166,-0.47267 1.15755,-0.78961 0.0703,-0.90813 0.4396,-1.27192 0.80202,-1.94718 0.68764,-0.85438 0.36242,-0.15158 1.4497,-0.96876 1.24436,-0.97014 1.83693,-3.52778 0.48093,-0.52779 0.6091,-0.24666 0.75516,-0.062 0.72761,0.022 0.63941,0.13367 0.63803,0.34175 0.99494,1.24575 1.72806,0.71245 1.75838,0.41341 0.67248,0.73449 0.1006,0.39412 0.16123,0.50299 1.23748,0.78686 -0.0524,1.43867 0.14056,0.24253 1.58199,1.62471 1.47036,1.079 -0.0372,1.35461 0.0675,0.63115 -0.0469,1.32153 v 0.46027 l -0.44511,0.66283 -0.41754,0.26321 -0.29766,0.339 -0.59531,0.13229 -0.5209,-0.16261 -0.52917,-0.51952 -0.33899,-0.38998 -0.15021,-0.0165 -0.0772,0.14469 0.011,0.23289 -0.1502,0.19568 -0.21635,0.15434 -0.0896,0.13367 -0.0606,0.0951 -0.11438,0.11162 0.007,0.14745 -0.0413,0.10197 -0.0289,0.20533 0.0537,0.24943 -0.0372,0.32797 -0.0289,0.19154 -0.1571,0.13643 -0.31144,0.022 -0.36518,-0.011 -0.29628,-0.0524 -0.19154,-0.49058 -0.24254,-0.30868 0.0165,-0.54157 0.0551,-0.39136 -0.0482,-0.16399 -0.13918,0.003 -0.14746,-0.0386 -0.0592,0.0276 h -0.0923 l -0.0689,0.0358 -0.10886,0.0358 -0.0345,0.0648 -0.0317,0.0882 -0.0207,0.0813 v 0.0923 l 0.0248,0.0786 0.0317,0.0689 0.0565,0.0689 0.0579,0.0799 0.0345,0.10335 -0.0138,0.0772 -0.0469,0.0868 -0.051,0.0248 -0.0579,0.0772 -0.0289,0.0179 -0.003,0.0262 0.0358,0.0441 0.0124,0.0496 0.011,0.11989 0.0386,0.15021 -0.0193,0.0179 0.004,0.0469 0.0455,0.0124 0.0482,0.0538 0.0179,0.0772 0.0275,0.10335 -0.004,0.0772 -0.0179,0.0854 0.007,0.073 0.0469,0.0786 0.0717,0.0896 0.10748,0.0717 0.12127,0.062 0.10336,0.0689 0.0703,0.0524 0.0717,0.0262 0.0785,0.007 0.10473,-0.004 0.11989,-0.0207 0.0951,-0.0592 0.0455,-0.0372 0.0662,-0.051 0.004,-0.003 0.0234,-0.0124 0.0813,-0.0606 0.1061,-0.0524 0.10612,-0.0358 h 0.0551 l 0.0827,0.0275 0.15296,0.003 0.0537,-0.011 0.0799,0.0275 0.0606,0.0386 0.0551,0.0496 0.0579,0.0455 0.0992,-0.0138 0.0868,-0.005 0.0675,-10e-4 0.0772,0.04 0.0593,0.0207 0.0854,0.0303 0.0841,-0.0124 0.14607,-0.0345 0.14469,0.006 0.34452,-0.0661 0.52778,-0.15021 0.6656,-0.23977 0.13918,-0.0496 1.15617,-0.62149 0.73312,-0.35002 0.54983,-0.41204 0.93845,-0.60495 0.80064,-0.56638 1.15479,-0.8282 0.45614,-0.32797 1.16168,-0.85576 1.28985,-0.76482 0.78134,-0.72622 1.01286,-0.80064 0.46302,-0.32108 0.14607,-0.12541 0.0827,-0.13229 0.2067,-0.0317 0.004,-0.003 0.0524,-0.12264 0.0965,-0.0579 0.11713,0.003 0.21635,-0.0537 0.13505,-0.062 0.13643,-0.14332 0.113,-0.13505 -0.0482,-0.1502 0.0455,-0.1447 0.0868,-0.0909 0.0207,-0.10059 -0.001,-0.10887 0.0909,-0.008 0.26458,-0.31006 0.43133,-0.3707 0.33073,-0.37207 0.13642,-0.16674 0.0275,-0.051 0.1695,-0.16261 0.008,-0.11162 0.0689,-0.0813 0.29215,-0.36931 0.2384,-0.26046 0.0386,-0.15296 0.1323,-0.13229 0.23289,-0.30592 0.23702,-0.33625 0.20395,-0.56361 0.63252,-0.89711 0.91915,-1.31878 1.25953,-1.74735 0.94119,-1.46348 0.86679,-1.06935 0.87505,-1.10105 0.23014,-0.3018 0.0703,-0.15847 0.0468,-0.18604 0.0276,-0.16812 0.0248,-0.11162 0.0648,-0.19706 0.86678,-1.59439 0.53331,-1.00872 0.27698,-0.70556 0.11162,-0.26182 0.1943,-0.41066 0.13919,-0.38309 0.0827,-0.36105 0.073,-0.42168 0.0331,-0.42857 -0.0317,-0.29077 -0.0386,-0.28663 -0.0138,-0.23564 0.0482,-0.69729 0.10198,-1.10656 0.0331,-0.22187 0.0538,-0.41065 -0.006,-0.18053 -0.0179,-0.1254 -0.008,-0.12265 0.011,-0.54983 -0.0275,-0.33624 -0.0413,-0.27699 -0.0717,-0.18052 -0.0703,-0.24805 -0.0524,-0.34726 -0.0138,-0.4272 0.19706,-1.32567 0.0524,-0.12402 0.10335,-0.16399 0.0331,-0.13367 -0.0193,-0.12815 -0.0896,-0.15572 -0.15435,-0.22738 -0.0537,-0.11438 v -0.10473 l 0.062,-0.20808 0.0358,-0.28663 v -0.12816 l -0.022,-0.28526 -0.0138,-0.13918 -0.04,-0.2508 -0.0386,-0.26045 -0.0661,-0.19981 -0.13091,-0.37208 -0.022,-0.16123 0.0138,-0.17777 0.0717,-0.11437 0.0234,-0.0813 -0.0138,-0.073 -0.0606,-0.0951 -0.0675,-0.13918 -0.005,-0.14469 -0.003,-0.16674 -0.0427,-0.26597 -0.0441,-0.21772 -0.0882,-0.31558 -0.0275,-0.17225 -0.20532,-1.65365 -0.13505,-0.56637 -0.0455,-0.0978 -0.0965,-0.0868 -0.14607,-0.15709 -0.19706,-0.37207 -0.14194,-0.44649 -0.10611,-0.3638 -0.15434,-0.46716 -0.25631,-0.59944 -0.14057,-0.35829 -0.0992,-0.0827 -0.0703,-0.0276 -0.0289,-0.0455 -0.004,-0.0537 0.0717,-0.11852 0.0469,-0.18465 -0.0372,-0.27285 -0.0606,-0.226 -0.0675,-0.27148 -0.11438,-0.23977 -0.0772,-0.30317 -0.007,-0.35829 -0.0386,-0.11714 -0.0744,-0.0758 -0.15434,-0.0482 -0.0744,-0.22324 -0.34727,-0.82131 -0.30592,-0.70004 -0.33762,-0.66284 -0.34313,-0.77032 -0.15848,-0.34727 -0.18879,-0.49747 -0.23288,-0.56637 -0.24392,-0.70556 -0.32246,-0.76206 -0.34451,-0.9219 -0.35553,-0.79926 -0.52779,-1.20579 -0.27837,-0.62287 -0.1502,-0.38861 -0.1943,-0.48369 -0.15572,-0.35554 -0.33762,-0.65594 -0.16674,-0.42168 -0.2012,-0.678 -0.1943,-0.63252 -0.14332,-0.42305 -0.2632,-0.74828 -0.18742,-0.56775 -0.54432,-1.50068 -0.2949,-0.8723 -0.26596,-0.85438 -0.24529,-0.98944 -0.20947,-0.7841 -0.1502,-0.15021 -0.16399,-0.73036 -0.40514,-0.97013 -0.0331,-0.18053 0.0124,-0.0978 0.0593,-0.43822 -0.31971,-1.4745 -0.18328,-0.70004 0.003,-0.69729 -0.12402,-0.19154 -0.3142,-0.0606 -0.20808,-0.11713 0.022,-0.16123 -0.0165,-0.0744 -0.22876,0.0138 -0.2136,-0.10059 0.0951,-0.26597 -0.0331,-0.1061 -0.37759,-0.0689 -0.0744,-0.14194 0.01,-0.1378 0.18604,-0.11162 0.15572,0.0138 0.0606,-0.0579 0.0634,-0.15848 -0.091,-0.14193 -0.10473,-0.0138 -0.18879,-0.0469 -0.18191,0.01 -0.13504,0.051 -0.25218,0.004 -0.226,0.0496 -0.23702,0.0992 -0.18191,0.01 -0.38447,-0.11162 -0.18466,-0.17501 -0.0413,-0.15847 0.11851,-0.13919 0.12403,-0.11437 h 0.16261 l 0.24253,0.0909 h 0.31006 l 0.18879,-0.0565 0.35416,0.0193 0.24253,-0.14469 0.43546,-0.30317 0.0207,-0.37482 -0.23013,-1.18098 -0.19568,-0.29904 0.062,-0.42857 -0.0978,-0.23288 -0.19981,-0.41204 -0.0262,-0.21221 -0.11162,-0.15848 -0.0579,-0.0772 0.0275,-0.11162 -0.0207,-0.15159 -0.0744,-0.12126 -0.11162,-0.0648 -0.10059,-0.13091 0.007,-0.16537 -0.1254,-0.0579 -0.17776,-0.0841 -0.0951,-0.0882 -0.0606,-0.0909 0.0345,-0.0634 0.0538,-0.0538 0.0909,0.0124 0.04,-0.0675 -0.0537,-0.21222 -0.0882,-0.16812 -0.0634,-0.24254 -0.004,-0.39825 0.0579,-0.11162 0.0951,-0.23978 -0.0813,-0.091 -0.0606,-0.0441 -0.011,-0.0565 -0.003,-0.0648 -0.0772,-0.0496 -0.0303,-0.0744 0.0441,-0.0909 0.0496,-0.0606 -0.0289,-0.0413 -0.18328,-0.0386 -0.2384,-0.0786 -0.22186,-0.0882 -0.21084,-0.20533 -0.16674,-0.18328 -0.0675,-0.23426 0.0896,-0.14332 -0.12264,-0.1502 -0.0772,-0.2453 -0.3955,-0.0276 -0.0717,-0.0606 -0.35002,-0.0276 -0.36656,-0.04 -0.27285,0.0344 -0.63803,-0.11713 -0.18879,-0.022 -0.45062,0.0386 h -0.21084 l -0.19981,0.0786 -0.339,0.0165 -0.28939,0.0551 -0.24942,0.18328 -0.11163,0.13918 -0.0165,0.20532 0.0331,0.0951 0.011,0.0551 -0.006,0.12265 0.13919,0.2384 -0.0606,0.21635 -0.0841,0.0772 -0.28801,0.0951 -0.21221,0.0441 -0.17226,0.0841 -0.005,0.15572 -0.006,0.12678 -0.23841,0.073 -0.30592,-0.0786 -0.1447,0.04 -0.25493,0.0331 -0.16124,0.17777 -0.31143,0.15021 -0.1943,0.17777 -0.19982,0.1378 -0.15021,0.11713 -0.23288,0.11162 -0.17226,-0.022 -0.11162,0.0551 -0.13229,0.0937 -0.13918,0.062 -0.13367,-0.006 -0.16674,0.0275 -0.12816,-0.0785 0.04,-0.0992 0.006,-0.0786 0.11576,-0.11575 0.0675,-0.11713 v -0.10473 l -0.0841,-0.1006 -0.0165,-0.13367 0.11713,-0.13918 0.15572,-0.13781 0.0331,-0.13366 -0.0785,-0.19982 -0.0386,-0.28388 0.1006,-0.0441 -0.006,-0.12816 0.0496,-0.0717 0.24116,-0.21084 0.14883,-0.13643 0.13091,-0.27285 0.16123,-0.13091 0.30317,-0.14332 0.42306,-0.13642 0.30868,-0.0785 0.10059,-0.0138 0.0565,-0.0441 -0.0758,-0.16123 -0.062,-0.24254 -0.006,-0.22324 0.062,-0.19154 0.10611,-0.21222 0.22875,-0.0496 0.26045,0.0124 0.25494,-0.0372 0.16812,-0.0496 0.20395,-0.0124 0.23564,0.0441 0.18053,-0.12402 0.27285,0.0179 0.22324,0.0193 0.22462,0.0675 0.11162,-0.0372 0.23564,-0.14883 0.19844,0.0372 0.35416,-0.0427 0.26045,0.0868 0.29765,0.20395 0.29215,0.062 0.39687,0.051 0.0868,-0.0565 0.31695,0.0744 0.49609,0.11851 0.29215,-0.0565 0.27285,-0.19292 0.29214,-0.12403 0.45338,0.0248 0.0868,-0.0496 0.0992,-0.22325 -0.0565,-0.25218 0.051,-0.23564 -0.0303,-0.34727 -0.25494,-0.18465 0.0606,-0.26596 0.21498,-0.22463 0.0606,-0.31694 -0.0193,-0.23565 0.0606,-1.49241 -0.15296,-0.4396 0.0413,-0.2756 0.27561,-0.59394 0.22462,-0.62287 0.28663,-0.57327 0.23565,-0.6339 0.54157,-0.74551 0.37758,-0.57327 0.051,-0.39825 0.60358,-0.37896 1.04317,-1.59439 0.23565,-0.89021 -0.0207,-0.74552 -0.0827,-0.48094 -0.01,-0.39825 -0.17363,-0.46027 -0.20533,-0.53192 -0.13229,-0.66421 -0.0923,-0.38861 -0.01,-0.3073 -0.36793,-0.44924 0.11162,-0.17364 0.35829,-0.0207 0.0303,-0.14332 0.26596,-0.45061 0.21498,-0.41893 0.113,-0.26596 0.13229,-0.4079 0.062,-0.77721 0.93982,-1.18649 0.89022,-1.29811 1.06246,-1.1052 1.0735,-0.68488 0.17363,-0.29628 0.31695,0.011 1.2485,-0.6339 0.59255,-0.54294 0.36794,-0.16261 0.10197,-0.226 0.051,-0.28526 -0.0303,-0.27698 0.27561,-0.22462 0.22599,-0.25494 0.98116,-1.79971 0.26597,-0.6339 0.11162,-1.00184 0.20533,-0.49058 0.31694,-0.31694 0.34865,-0.43133 0.13229,-0.30593 0.24529,-0.53054 0.12265,-1.52411 -0.113,-0.83785 -0.38861,-0.87919 -0.16399,-0.226 -0.051,-0.28525 0.40928,-0.51125 0.26597,-0.6339 -0.011,-0.71658 -0.17226,-1.40835 -0.38998,-0.96601 -0.33624,-0.50436 -0.31282,-0.65181 -0.30041,-0.20533 -0.28388,-0.32797 -0.39963,-0.12816 -0.70555,-0.0275 -0.18328,-0.16674 -0.37207,-0.0661 -0.84474,-0.26183 -0.36104,-0.2825 -0.83234,-0.32797 -0.60633,-0.17226 -0.42995,-0.33624 -0.26045,-0.31006 -0.16399,-0.16536 -0.19292,-0.13505 -0.20946,-0.0455 -0.22187,0.01 -0.17226,0.0606 -0.21084,0.0482 0.0593,-0.26596 -0.21222,-0.12678 -0.29076,0.0262 -0.33073,0.001 -0.2136,-0.051 -0.31971,-0.0965 -0.21634,-0.0275 -0.11852,-0.0882 -0.0331,-0.13229 -0.11989,-0.17088 -0.18879,-0.062 -0.32522,0.0579 -0.14056,-0.0868 -0.22049,-0.18741 -0.31281,-0.0482 h -0.46991 l -1.65916,-0.791 -0.17088,-0.0427 -0.0786,-0.0248 -0.0923,0.0661 -0.24392,0.062 -0.14469,-0.11988 -0.0606,-0.0386 0.007,-0.0841 -0.0469,10e-4 -0.0882,0.0772 -0.0634,0.0593 -0.0923,0.0234 0.0179,0.022 0.11713,0.011 0.0965,0.0372 -0.0386,0.0772 -0.16399,0.0152 -0.15296,0.0758 -0.0992,0.10473 -0.0317,0.13229 -0.1447,0.0648 -0.16399,0.022 -0.0882,-0.12816 -0.0441,-0.17087 0.0179,-0.0496 0.0455,0.004 0.051,-0.0427 0.007,-0.062 -0.0317,-0.0882 -0.003,-0.0551 0.0179,-0.062 -0.0138,-0.04 -0.0386,-0.0234 -0.005,-0.0358 0.022,-0.0524 0.051,-0.0496 0.0179,-0.0455 -0.0248,-0.051 -0.0524,-0.003 -0.0234,0.0386 -0.0179,0.0468 -0.04,0.0262 -0.0372,-0.0138 -0.0524,0.0413 0.004,0.0455 -0.0524,0.0372 -0.0124,0.0234 -0.0276,0.003 -0.004,-0.0262 -0.0275,-0.022 -0.022,0.0372 -0.0786,0.0469 -0.0275,0.007 -0.0262,-0.0358 -0.0386,-0.0207 h -0.0386 l -0.0152,0.0262 v 0.0523 l -0.0124,0.0496 -0.0896,-0.0179 -0.0165,-0.0634 -0.0248,-0.0593 -0.04,-0.0165 -0.0413,0.0289 0.005,0.0496 -0.0579,0.0152 -0.0579,0.0289 -0.0565,-0.0234 -0.0937,0.0331 -0.0841,0.0386 -0.062,0.0593 -0.0909,-0.003 -0.0882,0.0207 -0.11163,-0.0248 -0.0937,-0.0207 -0.11025,-0.0152 -0.0551,-0.0303 -0.0579,-0.001 -0.0689,0.0289 -0.0648,0.0331 -0.0799,0.007 -0.062,-0.004 -0.0951,-0.0248 -0.0841,-0.0427 -0.0234,-0.0455 -0.0854,-0.005 -0.0441,-0.0152 -0.0689,0.003 -0.0551,0.005 -0.0675,0.01 -0.0386,0.022 0.007,0.0455 0.0262,0.0165 0.005,0.0124 -0.0234,-10e-4 -0.0152,0.005 -0.003,0.0276 0.011,0.0289 -0.0152,0.0124 -0.0441,0.0152 -0.0689,-0.003 -0.0441,-0.007 -0.0303,-0.0289 -0.0469,-0.0386 -0.0165,-0.0606 -0.0179,-0.0179 -0.0579,0.008 -0.003,0.0469 -0.0786,0.0207 -0.0441,-0.0152 -0.051,-0.0579 -0.0551,-0.003 -0.0289,0.0289 -0.04,0.0207 -0.0606,0.011 -0.062,-0.0165 -0.0441,0.0234 -0.11851,0.011 -0.0772,-0.0661 h -0.0813 l -0.0978,-0.0179 -0.0896,-0.0441 -0.0854,0.0138 -0.0606,0.051 -0.0179,0.11713 -0.0331,0.0606 h -0.0882 l -0.0634,-0.0413 -0.0345,-0.15158 -0.001,-0.0854 -0.11025,0.0482 -0.22324,0.20946 -0.0689,0.20808 -0.12127,0.0675 -0.17776,0.0331 -0.34451,-0.24529 -0.23427,-0.2384 -0.0165,-0.11713 -0.12678,-0.005 -0.0455,0.0841 -0.12126,0.0165 -0.18328,-0.12817 -0.28388,0.0386 -0.51676,0.21222 -0.13367,-0.011 -0.11025,-0.17776 -0.21221,-0.0124 -0.18328,0.16122 -0.41066,0.0951 -0.61047,0.16675 -0.50023,0.21084 -0.32797,-0.011 -0.22738,0.10059 -0.4451,0.12127 -0.0937,0.1447 -0.18328,0.0496 -0.11162,-0.0882 -0.36656,-0.0496 -1.35048,0.18878 -0.6835,0.17226 -0.21635,0.14331 -0.12816,-0.0992 -0.19431,-0.0441 -0.20532,0.13781 -0.19982,-0.12127 -0.35002,0.15572 -0.16123,-0.10611 -0.86128,0.0606 -0.17225,-0.0992 -0.32246,0.15572 -0.46027,-0.17777 -0.62287,0.0551 -1.13274,-0.005 -1.73909,-0.31144 -0.81718,-0.2384 -1.37114,-0.61184 -1.46762,-0.55535 -0.5333,-0.0551 -0.0661,-0.12265 -0.54984,-0.19982 -0.14469,0.0951 -0.31695,-0.0565 -0.16674,-0.18328 -0.26597,0.0675 -0.42306,-0.2067 -0.0717,-0.14883 -0.18879,-0.011 -0.23978,0.16537 -0.23289,-0.022 -0.16123,-0.1323 -0.22737,-0.0785 -0.0951,-0.22738 -0.56637,-0.0662 -0.16124,-0.11162 -0.35001,0.0772 -0.16675,-0.0275 -0.29352,0.0896 -0.16123,-0.12264 -0.13367,0.022 -0.22186,-0.11714 -0.13367,0.1006 -0.26183,-0.0551 -0.12127,0.15021 h -0.12816 l -0.1502,-0.0896 -0.12816,0.0551 -0.12678,-0.0606 -0.14469,0.0551 -0.0496,-0.1943 -0.11714,-0.0496 -0.20532,0.0386 -0.0386,-0.13918 -0.0951,-0.0275 -0.32797,0.0786 -0.34451,0.16674 -0.18879,-0.0234 -0.0717,-0.0772 0.0661,-0.13918 -0.0496,-0.0496 h -0.11162 l -0.13367,0.12264 -0.18328,-0.0165 -0.21084,0.13781 -0.17225,-0.0331 -0.0772,-0.16123 -0.15021,-0.0606 -0.28939,0.0551 -0.20533,-0.13367 -0.3886,0.10611 -0.27836,-0.011 -0.0992,0.10059 -0.1447,-0.0179 -0.18879,-0.23288 -0.25494,0.022 -0.18328,0.18879 -0.16123,-0.0165 -0.13367,-0.16123 -0.72209,-0.0992 -0.77859,0.0441 -0.83785,-0.21084 -1.00597,-0.1888 -1.65089,-0.39411 -1.67707,-0.70005 -2.83876,-0.88883 -2.03536,-0.85163 -0.83509,-0.37758 -0.87781,-0.38861 -0.11851,-10e-4 -0.0854,0.051 -0.12127,0.14056 -0.10197,-0.004 -0.0469,-0.0703 -0.011,-0.0937 0.01,-0.14194 -0.022,-0.0896 -0.0441,-0.0262 -0.0579,0.011 -0.0937,0.022 -0.091,-0.006 -0.0386,-0.0331 -0.1695,-0.10749 -0.21635,-0.12953 -0.24115,-0.0896 -0.31006,-0.13505 -0.36518,-0.15296 -0.7786,-0.27836 -0.60771,-0.22187 -0.80202,-0.40514 -0.55535,-0.21084 -1.03904,-0.42168 -0.2384,-0.1006 -0.16123,-0.0978 -0.022,-0.01 -0.0345,0.007 -0.0482,0.022 -0.0634,0.005 -0.13505,-0.0165 -0.39825,-0.0909 -0.31557,-0.13367 -0.16812,-0.14193 -0.0579,-0.0441 -0.0606,-0.0179 -0.0882,-0.01 -0.0772,0.0179 -0.16536,-0.003 -0.22049,-0.0496 -0.57188,-0.12403 -0.45476,-0.0469 -0.3514,-0.0551 -0.30317,-0.0179 h -0.19017 l -0.19844,0.0331 -0.0524,-0.007 -0.0565,-0.0289 -0.0717,-0.0937 -0.0661,-0.0592 -0.0923,0.011 -0.0868,0.0275 -0.11851,0.0537 -0.19292,-0.003 -0.11025,-0.11024 -0.26182,0.11024 -0.11025,0.16675 -0.34451,-0.0496 -0.0785,-0.18328 -0.288,-0.011 -0.15021,0.13367 -0.25632,-0.0675 -0.17776,0.11713 -0.75517,0.12816 -0.35002,0.0827 -1.04455,0.10059 -0.33349,0.19982 -0.25493,0.011 -0.12816,0.0496 0.0896,0.2384 -0.051,0.0675 -0.0882,-0.0165 -0.18879,-0.18879 -0.1943,-0.011 -0.53882,0.0717 -0.42306,0.22737 -1.68258,0.34451 -1.25539,0.0841 -0.20671,0.11575 -0.22187,-0.19981 -0.48369,-0.30593 -0.9219,-0.21635 -1.55029,-0.70004 -0.59394,-0.11576 -0.51676,-0.67799 -0.76619,-0.5898 -0.24529,-0.006 -0.18879,-0.1943 -0.006,-0.21084 -0.24391,-0.30042 -0.0275,-0.24942 0.0496,-0.21084 -0.15021,-0.32798 h -0.1502 l -0.0496,-0.38309 0.011,-0.34451 -0.0992,-0.17225 v -0.35003 l -0.16675,-0.28387 -0.0565,-0.18466 0.007,-0.0455 0.0344,-0.062 0.0331,-0.0551 0.007,-0.04 -0.01,-0.0207 -0.0386,-0.0193 -0.0289,-0.008 -0.0317,-0.004 -0.0565,-0.003 -0.0551,-0.022 -0.0345,-0.0675 -0.004,-0.0579 0.0234,-0.0427 0.0482,-0.0469 0.0455,-0.0758 0.006,-0.0275 -0.0193,-0.0386 -0.0496,-0.0193 -0.10611,-0.0276 -0.0882,-0.12402 -0.0868,-0.18604 -0.0179,-0.12816 0.0138,-0.0978 0.0634,-0.11713 0.001,-0.0496 -0.0262,-0.0165 -0.0455,-0.001 -0.0758,0.01 -0.1378,-0.005 -0.11438,-0.0868 -0.0772,-0.10887 -0.0124,-0.1254 0.1447,-0.18052 -0.007,-0.0413 -0.0317,-0.022 -0.19293,0.11162 -0.12677,-0.0124 -0.14195,-0.0992 -0.11988,-0.23427 -0.022,-0.28801 -0.022,-0.52779 -0.17226,-0.31695 -0.56913,-0.67799 -0.37896,-0.32522 -0.30179,-0.19706 -0.40239,-0.25493 -0.32797,-0.24254 -0.41754,-0.24942 -0.23565,-0.0951 -0.23978,-0.11025 -0.40514,-0.16949 -0.23702,-0.0537 -0.12265,-0.0413 -0.0455,-0.0868 0.0234,-0.1695 -0.0138,-0.0372 -0.0289,-0.022 -0.073,0.004 -0.0978,0.0689 -0.10473,0.0648 -0.0841,-0.0345 -0.0785,-0.0648 -0.0276,-0.0689 -0.0207,-0.0758 -0.0496,-0.0124 -0.0482,0.0124 -0.0537,0.0276 -0.0606,-0.0138 -0.0455,-0.008 -0.0331,-0.0124 -0.0179,-0.0317 -0.001,-0.04 0.0345,-0.0606 -0.0179,-0.0413 -0.0441,-0.0303 -0.13505,-0.0675 -0.19567,-0.0854 -0.19707,-0.0124 -0.0744,-0.0165 -0.0537,-0.0565 -0.0386,-0.0909 -0.022,-0.14883 -0.0758,-0.0634 -0.0524,-0.003 -0.0813,0.0248 -0.13367,0.0786 -0.16536,-0.0372 -0.0827,-0.0675 -0.04,-0.0882 0.062,-0.14607 -0.0331,-0.0717 -0.0689,-0.001 -0.0813,0.0896 -0.0937,0.0179 -0.10335,-0.0152 -0.14607,-0.0689 -0.12265,-0.0923 -0.022,-0.0331 -0.001,-0.0441 0.0276,-0.0923 -0.0345,-0.0579 -0.0606,-0.0345 -0.14056,-0.0661 -0.16123,-0.0275 -0.14745,0.0413 -0.1378,-0.001 -0.073,-0.062 0.011,-0.11575 -0.0234,-0.0579 -0.0689,-0.0372 -0.55535,-0.0813 -0.1254,-0.0331 -0.0827,-0.04 -0.0565,-0.007 -0.0896,0.0248 -0.15435,0.0427 -0.28387,0.0441 -0.17088,-0.004 -0.0882,-0.0124 -0.0496,-0.0234 -0.051,-0.0345 -0.0427,-0.008 -0.0648,0.008 -0.0496,0.004 -0.11024,-0.0248 -0.26045,-0.0703 -0.0152,-0.0138 0.007,-0.0165 0.0289,-0.0207 0.004,-0.0303 -0.0179,-0.022 -0.0482,-0.0248 -0.0648,-0.003 -0.0896,-0.004 -0.17777,-0.0275 -0.0124,-0.0358 0.0124,-0.0441 0.0882,-0.0165 0.0372,-0.0331 -0.001,-0.0537 -0.0799,-0.0868 -0.37758,-0.19844 -0.68902,-0.34038 -0.63803,-0.35829 -0.61598,-0.13918 -0.57878,-0.26734 -0.2825,-0.022 -0.062,-0.0717 h -0.16123 l -0.21635,-0.0675 -0.15572,0.007 -0.1943,-0.0786 -0.3831,0.0496 -0.16674,-0.0772 -0.21084,0.12265 -0.85025,-0.1447 -0.38309,-0.0841 -2.10014,-0.99356 -0.75516,-0.35002 -0.33348,-0.36105 -0.16124,-0.21773 -0.26182,-0.11024 -0.35554,-0.33349 -1.43316,-0.76067 h -0.20532 l -0.15021,0.0937 -0.13367,0.011 -0.0551,-0.0827 -0.0331,-0.21084 -0.23288,-0.17226 -1.23748,-0.60909 -0.81993,-0.30041 -0.64906,-0.31971 -0.41203,-0.21773 -0.0317,-0.0165 -1.48965,-0.91088 -0.0978,-0.0138 -0.0923,0.0469 -0.43132,0.55121 -0.5774,0.65457 -0.0441,0.0372 -0.0565,0.0193 -0.24391,-0.10473 -0.0758,-0.11576 10e-4,-0.0868 0.0276,-0.0799 0.16813,-0.3197 0.13642,-0.25907 0.0951,-0.17777 0.022,-0.12127 -0.0152,-0.17639 -0.0524,-0.15985 -0.11576,-0.15985 -0.14469,-0.0923 -0.17639,-0.0951 -0.20119,-0.11438 -0.17915,-0.0786 -0.0896,-0.004 -0.10197,0.0372 -0.16813,0.17915 -0.14331,0.10886 -0.16399,0.007 -0.11437,-0.1254 -0.0648,-0.23151 -0.0248,-0.23289 -0.0799,-0.14056 -0.18603,-0.12265 -0.45062,-0.25355 -0.41617,-0.21911 -0.4079,-0.27975 -0.5774,-0.41754 -0.42168,-0.28801 -0.3638,-0.30592 -0.3955,-0.30868 -0.75103,-0.45062 -0.20119,-0.0565 -0.16812,-0.0496 h -0.13505 l -0.10611,0.0193 -0.11989,0.0648 -0.0717,0.0482 -0.11713,0.0345 -0.11714,-0.0152 -0.0331,-0.0234 -0.008,-0.0744 0.0262,-0.10198 0.008,-0.0978 -0.0303,-0.0234 -0.308676,-0.10473 -0.723474,-0.44097 -0.547082,-0.32798 -1.092782,-0.66283 -0.628385,-0.61461 -0.260448,-0.21084 -0.866788,-0.70831 -1.240235,-1.10794 -0.384471,-0.42995 -0.949468,-0.99081 -0.184658,-0.24942 -0.184658,-0.0303 -0.26734,-0.13092 -0.01516,-0.27147 -0.195678,-0.26734 -0.249428,-0.26872 -0.304546,-0.12816 -0.332105,-0.38309 -1.310518,-1.16169 -1.048684,-0.51538 -0.662837,0.0634 -0.734494,-0.1323 -0.527788,-0.24115 -0.188793,-0.113 -0.451996,-0.44373 -0.32384,-0.71244 -0.542946,-0.46302 -0.677997,-0.38861 -0.784101,-0.40653 -0.968764,-0.46026 -1.652264,-1.10381 -0.212217,0.008 -0.468535,0.12403 -0.278363,-0.0579 -0.374827,-0.17915 -0.307301,-0.32797 -0.165364,-0.23426 -0.332108,-0.24943 -0.63941,-0.41479 -0.599448,-0.39136 -0.199816,-0.27561 -0.195678,-0.36518 -0.192929,-0.26734 -0.44786,-0.36931 -0.365184,-0.3955 -0.753782,-0.90399 -0.362426,-0.43409 -0.203949,-0.25631 -0.01791,-0.0937 -0.04134,-0.11713 -0.14056,-0.19155 -0.03721,0.10887 -0.03721,-0.008 -0.117133,-0.0179 -0.02617,-0.1254 -0.06477,-0.0827 -0.0083,-0.18879 -0.01791,-0.60772 -0.775838,-0.56499 -0.695907,-0.24805 -0.327972,-0.0565 -0.58429,-0.45889 -0.664213,-0.39136 -0.63941,-0.37207 -0.347266,-0.26045 -0.297656,-0.11162 -0.458888,-0.062 -0.186034,-0.11162 -0.398254,-0.19293 -0.502983,-0.22324 -0.141941,0.0124 -0.267338,0.31006 -0.391361,-0.27974 -0.175014,-0.38034 -0.158475,-0.26045 0.24805,-0.1819 -0.128156,-0.26459 -0.128159,-0.47128 -0.197062,-0.32109 -0.290766,-0.24942 -0.224616,-0.226 -0.420304,-0.6904 -0.180522,-0.12126 -0.04548,-0.10749 0.03171,-0.26596 -0.148828,-0.39274 -0.0028,-0.27699 0.0441,-0.32521 -0.689017,-1.17547 -0.191548,-0.34865 -0.158475,-0.20119 -0.158475,-0.23978 -0.06339,-0.23978 -0.03858,-0.0234 -0.425813,0.19982 -0.20533,0.0634 -0.124023,0.0165 -0.172255,0.0634 -0.132291,0.0276 -0.07579,-0.0689 -0.07028,-0.1006 0.04961,-0.0758 0.0758,-0.0634 0.09922,-0.0717 0.129532,-0.14194 0.08682,-0.0772 0.114376,-0.0772 0.133668,-0.0827 0.02755,-0.0524 0.01238,-0.0744 v -0.2156 l -0.07441,-0.13642 -0.06201,-0.16812 -0.366562,-0.39137 -0.316944,-0.44097 -0.359672,-0.6022 -0.148826,-0.37758 -0.223242,-0.32384 -0.329353,-0.35967 -0.0813,-0.17363 -0.161232,-0.19293 -0.55259,-0.74414 -0.424437,-0.34451 -0.107489,-0.17225 -0.09232,-0.19982 -0.237024,-0.24253 -0.307303,-0.42444 -0.245293,-0.27561 -0.241154,-0.18328 -0.06753,-0.34864 -0.110242,-0.16812 -0.403764,-0.31557 0.103351,-0.23427 -0.25218,-0.37896 -0.199816,-0.30454 -0.01929,-0.1888 -0.04134,-0.0896 0.04134,-0.27698 -0.17363,-0.16812 -0.05512,-0.0661 -0.03996,-0.0537 -0.01791,-0.0413 -0.0372,-0.0978 -0.04272,-0.0496 -0.02755,-0.0744 0.05374,-0.10198 -0.182653,-0.0372 -0.06201,-0.0661 0.0083,-0.1819 0.01238,-0.11575 -0.136427,-0.15572 -0.07441,0.0331 -0.06477,0.0551 -0.0813,0.0537 -0.0937,0.003 -0.02341,-0.0923 0.0083,-0.10198 0.103351,-0.0661 0.0689,-0.0909 -0.124024,0.0138 -0.208086,-0.0207 -0.300411,0.0937 -0.06615,-0.26596 0.366557,-0.0565 -0.214972,-0.31143 0.0069,-0.27148 0.152961,-0.30454 v -0.2316 l -0.04208,-0.35416 -0.172254,-0.32522 0.02066,-0.4451 -0.17363,-0.41617 -0.194308,-0.10335 -0.16674,-0.36794 -0.270097,-0.64492 -0.242533,-0.18742 -0.04134,-0.20119 -0.194307,-0.13091 0.03447,-0.31971 -0.423058,-0.35967 -0.402386,-0.49333 -0.304546,-0.60358 -0.285255,-0.13092 -0.08957,-0.22186 -0.374825,-0.56224 -0.256318,-0.0758 -0.478181,-0.29215 -0.687636,-0.25631 -0.208087,-0.56086 -0.325216,-0.21498 -0.326593,0.0276 -0.130916,-0.20119 0.08268,-0.17363 -1.182359,-0.37896 -0.246666,-0.0786 -0.228753,0.15158 -0.235646,-0.11713 -0.6339,-0.98392 -0.05099,-0.0248 -0.04685,0.004 -0.07717,0.0207 -0.05374,-0.008 -0.06753,-0.0469 -0.03858,-0.0965 -0.03859,-0.0634 -0.05926,-0.0303 -0.07717,-0.003 -0.09922,-0.008 -0.0689,-0.0165 -0.03996,-0.0276 -0.02617,-0.0345 -0.01929,-0.0207 -0.02479,-0.008 -0.02066,0.011 -0.01791,0.0207 -0.107484,0.0661 -0.143317,0.0606 -0.07993,0.0207 -0.07992,-0.0165 -0.05512,-0.0469 -0.04685,-0.0937 -0.02755,-0.0882 -0.0069,-0.0372 -0.02066,-0.0262 -0.04272,-0.003 -0.05926,0.0276 -0.0565,0.0152 -0.06752,-0.011 -0.0882,-0.0538 -0.04961,-0.062 -0.02479,-0.0496 -0.03447,-0.0744 -0.05788,-0.0496 -0.125402,-0.0469 -0.07166,-0.0165 -0.03583,0.003 -0.217731,0.0689 -0.03996,0.0138 -0.03305,0.0386 -0.04272,0.0786 -0.02204,0.0331 -0.0565,0.0372 -0.0813,0.0413 -0.01101,0.0165 0.0013,0.0345 0.0096,0.0317 0.07028,0.15572 0.01378,0.0772 -0.0097,0.0896 -0.01238,0.0248 -0.01654,0.0152 -0.0096,0.0441 0.0028,0.0661 -0.01378,0.10886 -0.03859,0.10336 -0.07028,0.0965 -0.07028,0.0634 -0.03443,0.0179 -0.02893,0.0317 -0.02479,0.0482 -0.03168,0.0868 -0.02066,0.0262 -0.03859,0.0165 -0.03996,-0.0179 -0.02341,-0.0386 -0.0565,-0.13091 -0.0083,-0.0331 -0.01241,-0.0345 -0.04272,-0.1378 -0.03168,-0.13781 v -0.0785 l 0.0028,-0.10611 0.01791,-0.073 0.01101,-0.0772 v -0.0703 l -0.0028,-0.0441 -0.01929,-0.0634 -0.01791,-0.0923 -0.01378,-0.0358 -0.02617,-0.0165 -0.07304,-0.0207 -0.07166,-0.0234 -0.08819,-0.0344 -0.06339,0.01 -0.05374,-0.0124 -0.06201,-0.0441 -0.04823,-0.0524 -0.06339,0.001 -0.133668,-0.0179 -0.09371,-0.0579 -0.289388,-0.0689 -0.119888,-0.0207 -0.166744,0.01 -0.125401,-0.0744 -0.02204,-0.12402 -0.241157,-0.113 -0.152964,0.0358 -0.0689,0.0427 -0.117134,-0.0992 0.01241,-0.0785 -0.0689,-0.011 -0.09922,0.0592 H 44.31047 l -0.129537,-0.0469 -0.161229,0.11851 -0.115755,0.0179 -0.132292,-0.0537 0.03583,-0.113 -0.06615,-0.0634 -0.163986,-0.0386 -0.170879,0.0592 -0.110243,0.0579 -0.274228,-0.19844 0.0055,-0.0772 -0.05374,-0.0262 -0.173632,0.0744 -0.06615,-0.0358 -0.0565,-0.11713 -0.176388,-0.0661 -0.220487,-0.0538 -0.249428,-0.0413 -0.16123,0.0923 -0.153098,0.0386 -0.05926,-0.0386 -0.05374,-0.0868 -0.206706,-0.0799 -0.166746,-0.0579 -0.176387,-0.0358 -0.112998,0.0179 h -0.09647 l -0.09646,-0.0386 -0.104732,-0.15158 -0.130914,0.008 -0.04134,-0.10749 -0.107489,-0.0234 -0.09095,0.0951 -0.208084,-0.0717 -0.137806,-0.0331 -0.04823,-0.10198 -0.0689,0.004 -0.02617,0.0524 -0.06339,0.0276 -0.07717,0.007 -0.155715,0.0744 -0.06339,0.0289 -0.17639,-0.0537 -0.144695,-0.0455 -0.06752,-0.113 -0.08268,-0.0909 -0.01516,-0.12264 -0.101973,-0.004 -0.07993,0.0592 -0.09647,0.051 -0.09784,0.0344 -0.146077,0.003 -0.07993,-0.0496 -0.09508,-0.11989 0.0041,-0.0785 0.02479,-0.0785 0.04823,-0.0345 -0.0041,-0.0469 -0.06752,-0.0207 -0.03721,-0.004 -0.04686,0.0248 -0.05099,0.0634 -0.09784,0.0441 -0.135046,-0.0441 -0.06615,-0.0138 -0.282499,-0.0551 -0.08819,-0.0744 0.01101,-0.062 0.01516,-0.0565 -0.01238,-0.0455 -0.07579,-0.0207 -0.06752,0.004 -0.07992,0.0413 -0.121269,0.004 -0.07579,0.0221 -0.0303,0.0455 -0.06339,-0.0124 -0.117134,-0.0331 -0.05512,-0.0551 0.0041,-0.0469 0.01654,-0.0717 -0.02479,-0.0413 -0.04686,-0.0179 -0.08406,-0.0248 -0.10473,-0.0758 -0.180522,-0.0593 -0.135046,-0.10059 -0.06339,-0.004 -0.159853,-0.0923 -0.01238,-0.0882 -0.05512,-0.0303 -0.04685,0.0221 -0.155718,-0.0386 -0.121269,-0.10473 -0.190167,-0.004 -0.165365,0.0358 -0.04272,-0.0207 -0.02755,-0.0317 v -0.0661 l -0.01516,-0.0689 -0.05374,-0.011 -0.07304,-0.01 -0.04961,-0.006 -0.03447,-0.01 -0.03996,-0.0262 -0.02479,-0.0303 -0.01516,-0.0441 -0.03168,-0.0593 0.04272,-0.0469 0.01516,-0.0262 -0.02479,-0.0965 -0.03446,-0.0165 -0.04685,0.0138 -0.04685,0.007 -0.04548,0.0193 -0.02617,0.0248 -0.06201,0.0303 -0.104733,0.0193 -0.06752,0.003 -0.06752,-0.011 -0.05512,-0.0248 -0.0441,-0.0951 -0.06063,-0.0965 -0.03721,-0.0579 -0.02204,-0.0276 h -0.01241 l -0.05098,0.006 -0.07717,-0.0152 -0.04823,-0.0234 -0.01654,-0.0827 -0.0055,-0.0138 -0.05374,-0.0179 -0.07993,-0.0179 -0.05374,-0.0193 -0.0565,-0.006 -0.04961,0.011 -0.06615,0.001 -0.02893,-0.11024 -0.241157,-0.0441 -0.07717,-0.0965 -0.08269,-0.0207 -0.07028,-0.0276 -0.05788,-0.0124 -0.04548,0.011 -0.05099,0.001 -0.136427,-0.0344 -0.02893,-0.0317 -0.02204,-0.0262 -0.0069,-0.0317 -0.0083,-0.0648 -0.01238,-0.007 -0.03031,-0.001 -0.02204,-0.007 -0.0083,-0.0179 -0.02617,-0.0193 -0.03031,-0.0152 -0.02479,-0.0221 -0.03443,0.004 -0.06891,-0.0455 -0.03858,-0.0124 -0.04272,0.006 -0.03306,0.0152 -0.05512,0.008 -0.01791,0.006 -0.02204,-0.01 -0.06339,0.0234 -0.05237,0.0317 -0.03447,0.0207 -0.02342,0.007 -0.02066,-0.008 -0.02893,-0.0165 -0.02341,-0.004 -0.03721,0.0221 -0.03859,0.0345 -0.0096,0.0331 v 0.0455 l 0.0013,0.0234 v 0.0276 l -0.01238,0.0234 -0.0055,0.0193 -0.02342,0.0289 -0.01516,0.0262 -0.01791,0.0276 0.0013,0.011 0.01101,0.0165 v 0.0165 h -0.01654 l -0.01516,-0.0124 -0.03168,-0.008 -0.0041,-0.0124 0.0013,-0.0413 -0.01101,-0.0482 -0.03031,-0.0165 -0.02893,-0.0165 -0.04134,-0.0248 -0.02066,-0.0152 0.02066,-0.0331 0.0083,-0.0207 0.01101,-0.0331 0.01929,-0.0276 0.01379,-0.0634 -0.01929,-0.051 -0.04272,-0.0358 -0.05788,-0.003 -0.04961,-0.0303 -0.03583,-0.0179 -0.06752,-0.0179 -0.04272,-0.0152 -0.04823,0.0193 -0.01929,0.0303 -0.02617,0.0496 -0.03447,0.0358 -0.03721,0.0248 -0.05099,0.003 -0.05926,-0.0207 -0.0937,-0.0413 -0.06752,-0.0496 -0.04134,-0.0221 -0.06752,-0.008 -0.04685,-0.0193 -0.05788,-0.0262 -0.04272,-0.0303 -0.02479,-0.0207 -0.03996,-0.0289 -0.108868,-0.0276 -0.05374,0.006 -0.07855,-0.011 -0.01791,-0.0344 -0.0303,0.008 -0.03031,-0.0248 -0.106112,-0.0689 -0.03583,-0.0496 -0.01378,-0.0551 -0.02755,-0.0441 -0.05512,-0.062 -0.129535,-0.0317 -0.04685,-0.0207 -0.08544,-0.0248 -0.05237,-0.0262 -0.06201,-0.0648 -0.03583,-0.073 -0.07579,-0.0675 -0.10473,-0.004 -0.124026,0.0138 -0.05925,-0.0372 -0.07442,-0.0317 -0.04685,-0.011 -0.04272,0.0234 -0.04547,0.0303 -0.06063,0.0455 -0.04134,0.007 -0.05374,-0.01 -0.09233,-0.0248 -0.0813,-0.0234 -0.07441,-0.10473 -0.07166,-0.0661 -0.05374,-0.0648 -0.07579,-0.0152 -0.03306,-0.0565 -0.01378,-0.1254 -0.09371,0.0537 -0.0565,0.0179 -0.128156,0.003 -0.02755,0.011 -0.107487,0.0165 -0.0441,0.0248 -0.0441,-0.003 -0.07166,-0.0345 -0.03721,-0.0413 -0.03583,-0.0565 0.0013,-0.0592 -0.02755,-0.0882 -0.0441,-0.0482 -0.03771,-0.0281 -0.06201,0.0221 -0.04548,0.0565 -0.04547,0.0317 -0.04548,-0.004 -0.04685,-0.0262 -0.06201,-0.0303 -0.07028,-0.0193 -0.05375,0.0386 -0.05787,0.01 -0.05374,0.003 -0.05512,-0.0207 -0.05237,-0.003 -0.05237,0.0207 -0.09646,0.01 -0.07441,0.0276 -0.04685,0.0165 -0.03306,0.0124 -0.03171,0.0441 -0.04685,0.01 -0.03859,0.0276 -0.0565,0.0496 -0.02617,0.0358 0.0096,0.0565 -0.02617,0.0303 -0.03583,0.0152 -0.03443,0.051 -0.04961,0.0827 -0.06615,0.062 -0.03858,0.0593 -0.03859,-0.0207 -0.03859,0.0193 -0.02617,-0.0207 -0.06477,0.004 -0.03721,-0.0441 -0.03996,-0.007 -0.07855,0.0207 -0.05099,0.0303 -0.09784,0.0193 -0.101976,0.0179 -0.06476,0.004 -0.111623,-0.003 -0.101975,-0.0221 -0.03447,-0.051 -0.0689,-0.0496 -0.07028,-0.04 -0.06339,-0.007 -0.09646,0.04 -0.111618,-0.007 -0.100599,-0.0358 -0.06063,0.011 -0.07717,0.051 -0.04823,0.0661 -0.09922,0.0675 -0.111622,-0.04 -0.114377,0.006 -0.07441,0.0992 -0.04961,0.15848 -0.106108,0.11713 -0.06063,0.0193 -0.108863,0.10611 -0.09922,0.1695 -0.141939,0.12127 -0.225999,0.0441 -0.03305,0.11714 -0.06615,0.0813 -0.07855,0.0303 -0.07166,0.1502 -0.07993,0.11576 0.0303,0.0276 -0.208084,0.25907 -0.191548,0.27836 -0.122645,0.0551 -0.01929,0.0772 0.07992,0.10335 -0.05237,0.0965 -0.07855,0.0207 -0.143314,0.2136 -0.04548,0.0799 0.03996,0.13092 -0.09233,0.16398 -0.08544,0.11989 -0.07855,0.21636 -0.125402,0.24666 -0.03306,-0.0386 -0.03583,-0.0303 -0.208081,0.17501 -0.261829,-0.011 -0.177768,0.0799 -0.23013,-0.0276 -0.103354,0.0276 -0.04685,0.0358 -0.08819,0.10611 -0.07855,0.11713 -0.188794,0.21084 -0.07441,0.0606 -0.173633,0.1695 -0.137806,0.0207 -0.128158,0.0193 -0.03306,0.0276 -0.07441,0.04 -0.06615,0.0193 -0.09095,-0.0193 -0.0441,-0.001 -0.112999,-0.0234 -0.07855,-0.0276 -0.02204,-0.0124 -0.02479,-0.006 -0.01791,0.0124 0.02204,0.12265 -0.101976,0.0854 0.01101,0.0303 -0.107487,0.113 -0.05788,0.0758 -0.01517,0.0675 -0.05512,0.0565 -0.0689,0.0496 -0.187413,0.10197 -0.04961,0.008 -0.107488,-0.0427 -0.09784,-0.0524 -0.119888,-0.10887 -0.04548,-0.0345 -0.06752,0.0207 -0.03443,0.0537 -0.04272,0.0372 -0.06752,0.0303 -0.07028,0.0207 -0.130912,0.0785 -0.04686,0.0207 -0.06339,0.0689 0.01517,0.15848 -0.02755,0.0262 -0.09095,0.0152 -0.06615,0.0469 -0.04686,0.006 -0.05236,0.062 -0.02893,0.0813 -0.04548,0.0593 -0.04548,0.0579 -0.05512,0.0152 -0.04961,0.11025 -0.05237,0.0593 -0.03306,0.0648 -0.04272,0.0661 -0.07028,0.001 -0.0193,0.0427 -0.03306,0.15159 -0.03447,0.0689 0.01379,0.0689 0.03721,0.051 0.03168,0.0303 0.01101,0.0661 0.01654,0.04 0.07442,0.10198 0.01792,0.0937 0.02618,0.0634 0.0069,0.0579 -0.192923,0.24943 -0.09784,0.0951 -0.08544,0.10611 -0.125402,0.20946 -0.104732,0.11576 -0.165365,0.19706 -0.08681,0.2067 -0.141937,0.20533 -0.09646,0.27837 -0.173634,0.24804 -0.150206,0.0909 -0.09646,0.0689 -0.03721,0.0868 -0.114377,0.11438 -0.100595,0.0138 -0.08682,-0.0689 -0.141937,-0.0221 -0.246669,0.11851 -0.49058,0.14883 -0.375837,0.226 -0.354157,0.24116 -0.80615,0.39963 -0.875055,0.19568 -0.467155,0.226 -0.09784,0.565 -0.173634,0.37758 -0.293522,0.3762 0.573264,0.70143 -0.664214,0.90399 -0.300414,-0.21084 -0.443728,-0.24391 -0.104729,-0.0827 -0.139185,-0.0758 -0.0813,0.051 -0.118512,0.113 -0.114378,0.0648 -0.095084,0.18465 -0.1405607,0.0372 -0.046852,0.0551 -0.067525,0.0978 -0.090949,0.0345 -0.011007,0.0648 -0.07166,0.0358 -0.088195,0.13092 -0.078546,0.0331 -0.099219,0.0386 -0.125402,0.0152 -0.110243,0.1006 -0.1557197,-0.001 -0.086815,0.0165 -0.056501,0.10197 -0.045473,0.12403 -0.1502055,0.17225 -0.1088673,0.0937 -0.1433161,0.0854 -0.2080823,0.15848 -0.1543402,0.11024 -0.1322917,0.11025 -0.07028,0.0234 -0.1116224,0.0648 -0.073036,0.0841 -0.059256,0.0689 -0.09646,0.0717 -0.074415,0.0675 -0.092329,0.0992 -0.067525,0.0827 -0.1460712,0.0841 -0.099219,-0.003 -0.089574,-0.0565 -0.1253982,0.0303 -0.1005983,0.13367 -0.048232,0.0854 -0.1033534,0.0593 -0.023424,0.0413 -0.097843,0.0965 -0.081305,0.0179 -0.093705,-0.0606 -0.035828,0.0331 0.030304,0.0441 -0.082681,0.0606 -0.024799,-0.0138 -0.022048,0.0138 -0.1226468,0.0937 -0.035828,0.0358 -0.01792,0.0841 -0.07717,0.0124 -0.068905,0.0827 -0.09784,0.0758 -0.07717,0.0593 -0.028928,0.0923 0.013793,0.0455 -0.019296,0.0606 -0.042718,0.11438 -0.012417,0.12678 -0.048232,0.15296 -0.052363,0.14607 -0.1722543,0.25494 -0.1088674,0.1695 -0.07717,0.0868 -0.111619,0.0882 -0.1185121,0.14745 -0.088194,0.0786 -0.062011,-0.004 -0.060635,0.04 -0.08957,0.16812 -0.011007,0.0455 -0.037208,0.0221 -0.0014,0.0262 -0.015169,0.0262 -0.104729,0.10198 -0.046856,0.0344 -0.016544,0.0469 -0.026175,0.006 -0.07028,-0.0207 -0.037208,0.0262 -0.031679,0.0551 -0.041342,0.0744 -0.059256,0.0537 -0.052363,0.0207 -0.05788,0.0772 -0.063387,0.0193 -0.012417,0.0772 -0.045477,0.062 -0.034431,0.0165 -0.068905,0.0317 -0.066146,-0.0207 h -0.07717 l -0.041338,0.04 0.00413,0.0565 -0.038587,0.04 -0.056501,-0.01 -0.060632,0.011 -0.012417,0.0455 -0.026175,0.051 -0.041338,0.0303 -0.041342,0.0221 -0.055121,0.0648 -0.052366,0.0207 -0.064767,0.0441 h -0.035828 l -0.090953,0.0689 -0.078546,0.0413 -0.030304,0.13091 -0.026175,0.16812 -0.052366,0.10749 -0.095084,0.0648 -0.012382,0.0221 -0.066146,0.0827 0.00688,0.0854 -0.037208,0.0896 h -0.039963 l -0.012417,0.0207 -0.00282,0.11989 0.00963,0.0992 0.027552,0.0648 0.044097,0.0372 -0.034466,0.0372 -0.00282,0.0689 0.037208,0.0648 0.062011,0.0744 0.024799,0.14607 0.015169,0.17363 0.037207,0.0965 -0.00282,0.18052 -0.00282,0.12954 -0.019296,0.11575 -0.00826,0.0896 -0.00967,0.13919 -0.015169,0.15296 -0.034466,0.17639 -0.074415,0.15709 -0.035828,0.0758 0.020672,0.0772 -0.1736302,0.23014 -0.1736336,0.17363 -0.1860375,0.17777 -0.085436,0.0165 -0.092329,-0.006 -0.075794,0.051 -0.1887889,0.19981 -0.1943029,0.12265 -0.07166,0.22462 -0.082681,0.32246 -0.060635,0.23013 -0.028928,0.0358 -0.1557197,0.18328 -0.2659592,0.23564 -0.07166,0.14332 -0.1419365,0.1378 -0.1791441,0.39826 -0.086819,0.37896 -0.0055,0.10197 -0.056501,0.17364 -0.2452899,0.41478 -0.086815,0.11163 -0.184658,0.0978 -0.055122,0.14331 -0.092329,0.0358 0.020672,0.0813 -0.1226433,0.24529 0.00963,0.20946 0.0055,0.24529 0.030304,0.13919 -0.056497,0.0758 -0.096463,0.11851 -0.050987,0.13229 0.060632,0.16812 -0.015169,0.29214 0.015169,0.17364 -0.045473,0.062 0.041339,0.14744 -0.011007,0.0923 -0.050987,0.15848 0.035831,0.24529 0.056498,0.16399 -0.050987,0.0868 0.045477,0.14331 0.081305,0.25494 0.1488265,0.0978 0.184658,0.051 0.3004114,0.0386 0.100598,0.0358 0.012382,0.062 0.015169,0.13504 0.07166,0.13505 0.016544,0.17777 0.00282,0.19568 -0.044097,0.16536 -0.056497,0.10336 -0.4313274,-0.0358 -0.026175,0.0289 v 0.16399 l -0.0055,0.1378 -0.041342,0.0703 -0.049608,0.0358 0.039963,0.19155 0.071656,0.0882 0.045477,0.17363 0.016544,0.0593 0.066146,0.113 0.024799,0.0868 0.057877,0.13092 0.022048,0.0827 0.06339,0.22048 -0.012417,0.04 0.030304,0.0537 -0.011007,0.0882 0.015169,0.0758 0.037204,0.0345 0.041342,0.0317 0.023424,0.0841 0.030304,0.0593 0.027552,0.0813 0.034466,0.15848 -0.023424,0.13091 -0.033056,0.0717 -0.075791,0.13229 -0.088194,0.0786 -0.026175,0.0441 -0.028928,0.073 -0.033055,0.073 0.027552,0.0841 0.00967,0.1006 -0.028928,0.0441 -0.00282,0.04 0.026175,0.006 0.012417,0.14056 -0.015169,0.0234 -0.028928,0.0744 0.0014,0.0744 0.042721,0.0358 0.035828,0.11024 v 0.0331 l 0.00826,0.073 -0.019296,0.12541 -0.035828,0.0606 -0.035832,0.0951 -0.041339,0.0882 -0.050987,0.0165 -0.041342,0.0524 0.046852,0.19154 -0.015169,0.0207 0.019296,0.19293 -0.041342,0.0965 0.026175,0.0496 v 0.062 l -0.031679,0.0524 -0.020672,0.0909 0.068904,0.13781 0.07717,0.10611 0.035828,0.0813 -0.097843,0.0923 -0.023423,0.0152 -0.048232,0.051 -0.059256,0.0413 -0.057877,0.0703 -0.015169,0.0565 -0.019296,0.0248 -0.042718,0.073 -0.041342,0.0262 -0.038583,0.011 -0.037208,0.0648 -0.095084,0.1626 -0.039966,0.0138 -0.0055,0.0648 -0.022048,0.0331 -0.044097,0.0675 -0.00688,0.0386 -0.08406,0.0496 0.0055,0.0317 -0.028928,0.0469 -0.041342,0.062 -0.028928,0.01 -0.046853,0.006 -0.020672,0.0248 -0.028928,0.0799 -0.016544,0.12127 0.013793,0.0455 -0.06339,0.0289 -0.0055,0.01 -0.015168,0.0703 -0.013793,0.0482 -0.042721,0.0675 0.00413,0.0482 -0.033055,0.0455 -0.033055,0.0331 -0.028928,0.0138 -0.026175,0.0248 -0.045473,0.0593 -0.020672,0.022 -0.0055,0.0234 -0.023423,0.0345 v 0.0579 l -0.00282,0.0744 -0.019296,0.0565 -0.024799,0.022 -0.020672,0.006 -0.035832,0.01 -0.00282,0.0234 -0.066146,0.0441 0.019296,0.0455 -0.00688,0.0978 -0.016544,0.12126 0.015169,0.0469 -0.00826,0.0276 -0.015169,0.0345 -0.033055,0.0138 -0.033055,0.073 -0.00413,0.15434 -0.038587,0.062 v 0.0345 l -0.016544,0.0248 -0.00413,0.0275 -0.023424,-0.001 -0.011007,-0.0152 -0.011007,-0.003 -0.015169,0.0234 0.00967,0.0427 0.028928,0.0358 0.048232,0.0303 0.023424,0.0565 0.044097,0.091 0.011007,0.0744 0.00413,0.0703 0.019296,0.0358 0.00688,0.0662 0.020672,0.0207 -0.012383,0.0165 -0.022048,0.0289 -0.016544,0.022 -0.035828,0.0248 -0.013793,0.0248 -0.024799,0.004 -0.028928,0.0413 0.011007,0.0413 0.048232,0.0744 0.049611,0.006 0.037207,0.0413 0.0014,0.0579 0.00967,0.011 0.016544,0.0482 0.015168,0.073 0.045477,0.0703 -0.00282,0.0331 -0.00413,0.0427 0.023424,0.0234 0.026175,-0.003 0.052366,-0.0193 0.033055,-0.0152 0.062011,-0.0165 0.019296,0.0152 -0.0055,0.0207 -0.020672,-0.003 -0.038587,0.0207 -0.055121,0.0303 -0.00413,0.0303 -0.00963,0.0165 -0.011007,0.0165 -0.031679,0.004 -0.020672,0.0234 0.00282,0.0551 0.011007,0.0275 0.020672,0.0358 0.0014,0.0262 -0.0055,0.0468 -0.026175,0.0262 -0.016544,0.0124 -0.019296,0.0275 0.012383,0.022 -0.00413,0.04 0.041338,0.0179 0.068904,0.0937 0.042718,0.13092 -0.00413,0.0372 0.0055,0.04 0.026175,0.0345 0.022048,0.0482 0.00826,0.0358 0.023423,0.0689 0.00413,0.0289 0.00963,0.01 0.033055,0.022 0.034467,0.0345 0.030303,0.0386 0.019296,0.062 0.039963,0.051 0.00282,0.0276 -0.00688,0.0303 0.020672,0.0413 0.03168,0.0289 0.044097,0.0565 0.011007,0.0469 0.066146,0.0786 0.023424,0.0386 v 0.0386 l 0.045473,0.0717 -0.0014,0.0758 0.042718,0.0276 0.066146,0.0179 0.045477,0.0275 0.037208,0.0565 0.038583,0.0565 0.085439,0.113 0.034466,0.0152 0.060632,0.0413 0.016544,0.0744 0.055122,0.20533 0.033055,0.12402 0.027552,0.0868 0.08406,0.14883 0.056501,0.1254 0.052366,0.12815 0.074411,0.0978 0.067525,0.0124 0.07028,-0.0289 0.073036,-0.0413 0.024799,0.0648 0.056501,0.16675 0.048232,0.20532 0.1226433,0.22325 0.024799,0.0537 -0.011007,0.0248 -0.00825,0.0358 -0.050987,0.30868 0.034431,0.0758 0.1295363,0.17777 0.035828,0.0689 0.011007,0.073 -0.011007,0.113 -0.027552,0.0648 0.023424,0.0386 -0.00826,0.0427 0.015169,0.0496 0.01792,0.0579 0.035828,0.062 0.034466,0.051 0.015169,0.073 0.00967,0.10197 -0.027552,0.062 -0.033055,0.0482 -0.015169,0.0565 -0.039963,0.12127 -0.027552,0.0909 -0.024799,0.0262 -0.041342,0.0152 -0.026175,0.0262 0.0055,0.0386 0.035831,0.0331 -0.039963,-0.007 -0.031715,0.0606 -0.1019741,0.1502 -0.039963,0.0813 -0.038587,0.0537 0.059256,0.01 -0.095084,0.22463 0.016544,0.10886 0.039963,0.2701 -0.07717,0.0785 0.068901,0.18466 0.046852,0.0951 0.01792,0.0827 -0.015169,0.11024 0.027552,0.0551 -0.0055,0.0661 -0.0055,0.0358 0.00688,0.0413 0.020672,0.0124 0.037207,-0.0152 -0.027552,0.0524 -0.011007,0.0207 0.015169,0.0441 v 0.04 l -0.00413,0.051 0.064767,0.0882 0.023424,0.051 0.026175,0.0579 -0.01792,0.0386 -0.024799,0.0345 0.00688,0.0758 0.023423,0.051 0.00282,0.0303 -0.0014,0.0634 -0.00282,0.022 -0.016544,0.0262 0.012417,0.0234 0.012383,0.0262 -0.020672,0.006 -0.012417,-0.0317 -0.01792,-0.0317 -0.024799,0.011 -0.013793,0.0234 -0.00413,0.0469 0.01792,0.0152 0.024799,-0.01 0.033055,-0.0138 0.016544,-0.003 -0.00282,0.0165 -0.063387,0.0275 0.015169,0.0152 0.060635,0.0482 0.041342,-0.003 0.012382,0.073 0.022048,0.0675 0.038587,0.062 0.022048,0.0441 0.00963,0.051 0.011007,0.0909 -0.019296,0.11989 -0.00826,0.11162 -0.022048,0.10335 -0.041342,0.10611 -0.1102429,0.27836 -0.095084,0.0992 -0.15985419586,0.12679 -0.0330550041,0.0165 -0.00413,-0.0345 0.00282,-0.0413 -0.019296,-0.0193 -0.034466,-0.0262 -0.023424,-0.0289 -0.00413,-0.0275 -0.039963,-0.0331 -0.00688,-0.0372 -0.013793,-0.007 -0.030304,0.001 -0.035831,0.0606 -0.066146,-0.04 -0.048232,0.0358 -0.019296,-0.001 -0.034466,0.011 -0.024799,0.0248 -0.0055,0.011 -0.013793,10e-4 -0.027552,0.011 -0.016544,0.004 -0.0055,0.008 -0.063391,0.011 -0.046852,0.011 -0.053746,0.0289 -0.049608,0.001 -0.038587,0.001 -0.07028,0.0358 -0.049607,0.0799 -0.046852,0.01 -0.019296,0.005 -0.1378056,-0.007 -0.01792,-0.007 -0.044097,0.0138 -0.038583,-0.004 -0.022048,0.0124 -0.045477,-0.011 -0.041342,0.001 -0.068901,-0.0207 -0.022048,0.011 -0.075791,-0.0124 -0.081305,-0.003 -0.042721,-0.01 -0.063387,0.0124 -0.053746,-0.004 -0.031679,0.0289 -0.039963,0.0193 -0.033055,-0.0179 -0.00688,0.0207 -0.046856,0.022 -0.066146,0.008 -0.092326,0.0648 -0.016544,0.0207 -0.019296,0.01 -0.039963,0.0579 -0.028928,0.005 -0.057877,0.0441 -0.039963,0.0386 -0.00413,0.0262 -0.027552,-0.003 -0.033055,0.0537 -0.035828,0.0262 -0.00282,0.0276 -0.045477,0.0413 -0.033055,-0.0165 -0.034431,-0.004 -0.037208,0.0358 -0.1061085,0.003 -0.045477,-0.0179 -0.053742,0.0207 -0.031715,-0.008 -0.038583,0.006 -0.053746,0.0152 -0.068901,-0.003 -0.090949,0.0275 -0.060636,0.0303 -0.053742,0.008 -0.045477,0.0372 -0.052363,-10e-4 -0.027552,0.0138 -0.045477,0.0207 -0.044097,0.006 -0.048228,0.007 -0.028928,0.022 -0.08406,-10e-4 -0.026175,0.0537 -0.057877,0.007 -0.022048,0.0138 -0.033055,0.0455 -0.048232,0.0345 -0.037208,-0.005 -0.012382,0.008 -0.044097,0.04 -0.048232,0.0386 -0.07166,0.0275 -0.062011,0.022 -0.075791,0.0207 -0.046852,-0.008 -0.081305,0.008 -0.037208,0.0331 -0.048232,0.0413 -0.059256,0.0124 -0.056497,0.008 -0.020672,0.011 -0.022048,0.0441 0.011007,0.0372 -0.00413,0.0331 0.011007,0.0124 v 0.0358 l 0.012417,0.0207 -0.016544,0.0386 -0.027552,0.0207 -0.042718,0.0413 -0.027552,-0.003 -0.023424,-0.0124 -0.011007,10e-4 -0.016545,-0.0124 -0.019297,-0.0248 -0.00963,-0.0138 h -0.016545 l -0.033055,-0.0152 -0.023424,0.0152 -0.0248,0.0138 -0.015169,0.033 -0.027552,0.0289 -0.016545,0.0248 -0.012418,0.0234 -0.017921,0.0207 -0.046852,0.0262 0.017921,0.0441 -0.019297,0.0207 -0.015169,0.0248 -0.042718,0.0413 -0.041342,0.0152 -0.064766,0.0152 -0.027552,0.004 -0.039963,0.0634 -0.00282,0.0799 -0.022049,0.0882 -0.042721,0.0606 -0.045473,0.0469 -0.05788,0.04 -0.011007,0.0234 -0.015169,0.0496 -0.096464,0.0331 -0.055122,0.0331 -0.052366,0.0386 0.013794,0.11437 -0.012382,0.011 v 0.04 l -0.031715,0.0179 -0.045473,0.0248 -0.052366,0.0606 -0.062011,0.0289 -0.049611,0.008 -0.038583,0.0275 0.00141,0.0413 -0.015169,0.0358 0.011007,0.0124 -0.023424,0.01 -0.017921,0.0124 -0.019297,0.0275 h -0.034526 l -0.023424,0.0317 -0.031715,0.0234 -0.016545,0.007 -0.022049,0.0358 0.016545,0.0372 -0.00413,0.0207 -0.074415,0.0455 -0.026176,-0.011 -0.023424,-0.003 -0.022049,0.0124 -0.00688,0.0275 0.031715,0.0331 0.020673,0.0124 -0.011007,0.0593 -0.013794,0.0496 -0.016545,0.0772 -0.045473,0.011 -0.031715,0.0138 -0.031679,-0.004 -0.033055,0.04 -0.0055,0.0289 -0.028928,0.0372 -0.011007,0.0358 0.031715,0.0179 -0.00688,0.0455 -0.075791,0.0799 -0.03306,0.0248 -0.04134,0.0138 -0.05374,0.0469 -0.05099,0.0152 -0.01379,-0.001 -0.0303,0.01 -0.01654,0.0469 -0.0083,0.0317 0.0096,0.0592 -0.02205,0.011 -0.01101,0.062 -0.01101,0.0592 0.02205,0.0593 -0.0028,0.0427 -0.02205,0.0772 -0.01101,0.0606 -0.02205,0.0262 -0.0565,0.0207 -0.04272,0.0413 -0.01517,0.003 -0.0441,0.051 -0.04272,0.0413 -0.0813,0.0275 -0.01792,0.0427 -0.0303,0.006 -0.02067,0.0386 -0.0083,0.0496 0.0014,0.0551 0.03171,0.0496 0.01238,0.0317 -0.01379,0.0537 -0.0055,0.0358 -0.02067,-0.004 -0.02205,-0.003 -0.0193,0.0827 -0.0069,0.0717 -0.0193,0.0661 0.0041,0.0579 -0.0041,0.0427 -0.0069,0.0675 -0.0014,0.0372 -0.01379,0.0234 0.0083,0.0248 0.0069,0.0345 0.01242,0.0275 -0.01655,0.0275 0.0041,0.0537 -0.02067,0.001 -0.03306,0.04 -0.03447,0.0506 -0.03996,0.0496 0.04961,0.073 -0.0069,0.0524 0.03443,0.0744 -0.01379,0.073 0.0083,0.0248 -0.01379,0.0289 0.0083,0.022 0.02618,0.0262 0.0248,0.022 0.01517,0.0606 0.01517,0.008 0.02755,0.0262 0.02893,0.022 0.0193,0.0386 -0.0014,0.0207 -0.0014,0.0386 0.0069,0.0427 0.0083,0.0455 0.0028,0.0717 -0.0069,0.022 -0.0083,0.0262 0.0069,0.0303 0.0193,0.0276 0.02755,0.0124 0.02893,0.0193 0.01101,0.0289 0.0055,0.0331 -0.01517,0.0207 -0.02618,0.0234 -0.05788,0.0289 -0.01517,0.0317 -0.01101,0.01 -0.03447,0.022 0.01242,0.0537 0.0083,0.0455 0.0248,0.0234 0.03168,0.0262 0.02755,0.0634 0.02342,0.0992 0.03996,0.062 0.0069,0.15296 0.0069,0.022 0.04548,0.007 0.01101,0.04 0.02893,0.0786 -0.0028,0.0455 -0.01517,0.0758 0.0303,0.10336 0.04547,0.0441 0.0014,0.0303 0.01654,0.0331 v 0.022 l 0.01655,0.0303 0.0069,0.0289 0.0055,0.0372 0.02755,0.0496 0.01655,0.0303 0.01101,0.0662 -0.0097,0.073 0.01101,0.0593 -0.03306,0.0372 0.0028,0.0138 0.01238,0.0565 0.02755,0.0551 0.0014,0.0634 0.01517,0.0248 0.03583,0.0524 0.01655,0.0482 0.01792,0.0537 -0.0014,0.0262 0.04823,0.0744 0.04686,0.0992 0.129533,0.23013 0.035831,0.18466 v 0.0331 l 0.019297,0.004 0.026176,0.0345 -0.026176,0.011 0.034466,0.0537 0.022049,0.003 0.060632,0.0799 0.012418,0.0441 0.00688,0.0648 -0.027552,0.0634 0.012382,0.17776 -0.00413,0.0744 -0.011007,0.0675 0.012418,0.0345 0.012418,0.0165 0.013794,0.0165 -0.026176,-0.007 -0.034466,-0.0193 -0.033055,0.0207 -0.00688,0.0372 0.035832,0.0248 0.027552,-0.0165 0.016545,-0.0262 -0.0248,0.13092 -0.034431,0.0909 -0.056501,0.0551 -0.038583,0.0138 -0.0055,0.0331 0.00825,0.0248 0.048232,0.003 -0.019297,0.0537 0.00688,0.0496 0.00825,0.0469 0.011007,0.0303 0.00282,0.0303 -0.00413,0.0537 0.046852,0.0537 0.00141,0.0289 0.016545,0.0441 0.030304,0.0317 0.00688,0.0345 0.00282,0.0758 -0.020673,0.0358 0.011007,0.0262 0.027552,0.0138 0.030304,0.003 v 0.0207 l 0.013794,0.01 0.015169,0.0317 0.00963,0.0317 -0.00282,0.0882 0.015169,0.0207 0.019297,0.0386 0.038587,0.0551 0.011007,0.0455 0.00826,0.0345 -0.00413,0.0579 0.041342,0.0413 -0.013794,0.0207 0.016545,0.0275 -0.00826,0.0152 0.034466,0.022 -0.00825,0.0275 0.00963,0.0441 -0.00963,0.0165 0.00141,0.022 0.030304,0.0496 0.037208,0.0717 0.0055,0.0234 0.015169,0.051 0.030304,0.0358 0.034466,0.0427 0.00963,0.0262 0.017921,0.0372 0.038587,0.0537 -0.00141,0.0372 0.013794,0.0207 -0.00282,0.0193 0.019297,0.0138 0.035828,0.0413 0.015169,0.004 0.0248,0.0427 v 0.0275 l 0.020673,0.008 0.00963,0.022 -0.00826,0.0138 0.023424,0.01 0.028928,0.011 0.00141,0.0386 0.017921,0.0124 0.020673,-0.0275 0.033055,0.022 0.028928,0.0772 0.0055,0.0358 0.037207,0.0785 0.046852,0.0524 0.085439,0.0606 0.071656,0.0978 0.1088672,0.16261 0.052363,0.1819 0.074415,0.18328 0.1157569,0.19568 0.034431,0.0193 0.022049,0.0358 0.062011,0.0276 0.056501,-0.008 0.056501,-0.0565 0.095084,0.13505 -0.00282,0.0965 -0.022048,0.005 0.00963,0.0413 0.012417,0.073 0.01792,0.0303 0.035828,0.0248 0.035828,-0.0317 0.0055,-0.0703 0.1860338,0.0965 0.1584748,0.21497 0.1322917,0.16399 0.062011,0.0827 0.00963,0.0482 0.031715,0.0303 0.088195,-0.0661 0.2480451,0.27284 0.015169,0.0744 0.212217,0.57051 0.095088,0.15296 0.4023855,0.35967 0.3431329,0.29628 0.2645833,0.34589 0.2962767,0.25769 0.3348638,0.3266 0.089574,0.14744 v 0.18466 l 0.00963,0.0965 0.1694992,0.16675 0.2011926,0.15985 0.07855,0.1254 v 0.0978 l 0.028928,0.0813 0.041342,0.0413 0.062011,0.0179 0.055122,0.0758 0.1143775,0.15021 0.1378022,0.1378 0.090949,0.0854 0.07166,0.0248 0.1639853,0.12678 0.07855,0.0799 0.045473,0.0551 0.06477,0.0675 0.023424,0.0758 0.059256,0.0675 0.024799,0.0565 0.022048,0.12127 0.037204,0.073 0.013793,0.0248 0.062011,0.10473 0.086815,0.12816 0.1185122,0.20808 0.031679,0.0758 0.050987,0.113 0.016544,0.0634 0.034467,0.12815 0.042718,0.001 0.01792,0.0303 -0.033055,0.0289 0.035828,0.0813 0.056501,-0.0138 0.016544,0.0234 -0.013793,0.0207 -0.028928,0.022 0.022048,0.0799 0.062011,0.19706 0.096464,0.22186 -0.013793,0.0717 0.00826,0.16124 0.00688,0.20394 0.026175,0.18053 0.00825,0.21359 -0.045473,0.14883 0.020672,0.19155 0.023423,0.0372 0.066146,0.12816 0.011007,0.0841 0.128157,0.10473 0.063387,0.13092 0.1584749,0.17776 0.1295363,0.31006 0.026175,0.40928 -0.027552,0.12816 -0.041339,0.14331 0.00963,0.0772 0.044097,0.18328 0.086815,0.13918 0.015169,0.18053 0.1143775,0.18603 0.034467,0.21084 0.019296,0.21084 -0.022048,0.0909 -0.100598,0.3197 -0.00282,0.008 0.075791,0.14608 0.0055,0.0868 -0.022048,0.11575 -0.1364261,0.0951 v 0.0345 l 0.064766,0.0661 0.012417,0.16399 -0.012417,0.10886 -0.00826,0.0965 0.020672,0.0923 -0.012417,0.0441 0.046852,0.0468 0.093708,0.0179 0.1047292,0.0345 0.00688,0.0648 0.030303,0.15848 0.053746,0.15847 0.030304,0.18604 -0.0055,0.27974 -0.042721,0.31419 -0.0055,0.0482 -0.024799,0.0758 -0.1019776,0.0785 -0.1116187,0.0662 -0.00967,0.14194 -0.028928,0.051 -0.064766,0.12816 -0.067525,0.1006 -0.071656,0.12126 -0.060636,0.0675 0.039963,0.073 0.0014,0.04 0.013793,0.0689 -0.024799,0.0524 -0.00963,0.12127 0.022048,0.0937 0.052363,0.15848 v 0.11437 l 0.011007,0.0992 -0.023424,0.0179 -0.00413,0.0248 0.00688,0.0358 0.056501,0.0193 0.073036,0.0303 0.066146,0.003 0.128157,0.006 0.088194,0.22875 -0.00282,0.0786 0.00688,0.13781 -0.0055,0.17225 0.011007,0.0592 -0.062012,0.0482 -0.053742,0.0165 -0.067525,0.01 -0.1061085,-0.006 -0.028928,0.0248 -0.057877,0.0648 -0.026175,0.0469 -0.030304,0.0275 -0.026175,0.0799 -0.026175,0.0772 -0.024799,0.022 v 0.0703 l -0.012417,0.0179 -0.00282,0.0455 0.012417,0.0248 0.055121,0.0593 0.019296,0.0317 0.00282,0.0386 0.00963,0.0537 -0.00963,0.0207 -0.023424,0.0303 v 0.0413 l 0.013793,0.0248 0.026175,0.0124 0.048232,0.0496 v 0.0675 l -0.00826,0.1006 -0.031679,0.0482 -0.030304,0.0193 -0.042718,0.0234 -0.00688,0.0413 0.019296,0.16399 -0.044097,0.15572 -0.1446953,0.13229 0.060632,0.16674 0.133671,0.19981 0.027552,0.22876 -0.033055,0.0496 -0.216355,0.0772 0.049611,0.0675 0.08268,0.0551 -0.027552,0.11713 -0.088195,0.18328 0.027552,0.1943 -0.056498,0.11714 0.1171329,0.0441 0.060632,0.0882 -0.1102431,0.15572 0.1226468,0.26733 0.1047327,0.13918 0.1502055,0.0386 0.1336675,0.37208 -0.1129982,0.073 -0.066146,0.0482 -0.016544,0.14882 0.1226431,0.13918 0.033055,0.31833 0.016544,0.31971 0.2783628,0.45888 0.074415,0.68764 0.064767,0.62288 0.5319218,1.74459 0.934311,1.14653 0.6311405,0.70418 1.2085388,0.66973 0.7551669,0.26595 1.7349504,0.7345 1.1740867,0.48783 1.0597131,0.3321 0.742763,0.47543 1.539268,0.0207 1.796961,0.68764 1.389063,0.90537 0.54846,0.25356 1.621949,0.55673 1.073492,0.30317 1.040419,0.0813 0.851627,0.008 1.154795,-0.0648 0.90813,-0.22187 0.959114,-0.22875 0.728983,-0.14745 0.621493,0.008 h 1.974728 l 2.440506,0.20395 0.974276,-0.11438 0.959114,0.15572 0.999077,-0.0579 1.236102,0.13919 1.063842,0.10748 0.234267,0.0413 0.610471,0.0951 0.199816,0.011 0.327975,0.0413 0.225996,-0.004 0.154339,0.0124 0.417545,0.0634 0.113003,-0.011 0.09922,-0.0496 0.172254,0.004 0.117131,0.0524 0.150207,0.0717 0.388607,-0.0717 0.301789,-0.0331 0.206708,-0.0496 0.173633,-0.0909 0.334865,-0.16123 0.260447,-0.0565 0.230132,-0.0303 0.07855,-0.0413 0.09508,-0.0441 0.06752,-0.0317 0.06339,-0.0152 0.08682,-0.0303 h 0.106109 l 0.128156,0.0124 0.158475,0.0524 0.139181,0.022 0.02617,0.0537 -0.02204,0.0634 -0.01516,0.0413 -0.04961,0.0537 v 0.0744 l 0.09095,0.0675 0.01101,0.0455 0.04547,-0.011 0.03721,-0.0675 0.05237,-0.0606 0.0303,-0.10886 h 0.151583 l 0.0069,-0.10198 0.180522,0.0152 0.332108,0.0785 0.305927,0.0303 0.45475,0.0386 0.423058,-0.0152 0.482314,-0.0303 0.501606,0.022 0.282498,-0.0482 0.44786,-0.0345 0.380341,0.0717 0.553972,0.0262 0.647676,-0.004 0.531923,-0.13918 0.343133,-0.0152 0.17363,0.0978 0.304549,-0.0179 0.449239,0.0262 0.417547,-0.011 0.362423,-0.0193 0.478179,0.12402 0.42168,0.0345 0.305924,0.0372 0.332108,0.0331 0.117133,-0.008 0.151583,10e-4 0.13367,0.0565 0.315571,-0.0289 0.124021,0.001 0.126783,-0.011 0.104727,0.0124 0.184658,-0.004 0.228757,-0.0427 0.152961,0.001 0.07993,-0.0152 0.199814,0.01 0.08682,0.003 0.135046,0.0179 0.132292,0.0331 0.141936,0.0124 0.249425,0.0207 0.257694,-0.0179 0.265961,0.0413 0.330729,0.01 0.24529,-0.0138 0.234268,0.0303 0.122645,0.007 0.121269,0.0138 0.124021,0.007 0.159856,0.0138 0.155715,0.008 0.09922,0.007 0.128156,0.0138 0.08406,0.011 0.03443,-0.005 0.07166,0.007 0.07717,0.005 0.09784,0.0165 0.103354,-0.0317 0.179144,0.022 0.09646,-0.0207 0.04134,0.01 0.168119,-0.003 0.172255,0.022 0.16261,-0.0386 0.14745,0.006 0.209462,-0.0345 0.106109,0.004 0.168119,-0.0152 0.187412,-0.008 0.133673,-0.0234 0.112998,0.003 0.08544,-0.0234 0.06339,-0.0331 0.09095,-0.0579 0.115752,-0.0262 0.06064,-0.022 0.07855,-0.0165 0.09509,-0.0331 0.07717,-0.0289 0.0565,-0.0234 0.06201,-0.0138 0.07028,0.0345 0.03305,-0.0413 0.135048,-0.0331 0.155718,-0.011 0.141939,-10e-4 0.130915,-0.0138 0.119888,-0.005 0.132292,-0.0165 0.137806,-0.0124 0.14469,-0.0207 0.151585,-0.0248 0.126778,-0.003 0.05926,-0.0289 0.137805,-0.051 0.0441,-0.022 0.09233,10e-4 0.07855,-0.007 0.07166,-0.006 0.101973,0.0262 0.0689,-0.007 0.08268,-0.01 0.07717,0.0276 0.151585,0.0152 0.05925,0.0248 0.07855,0.0427 0.128159,0.0138 0.07028,0.007 0.09509,0.073 0.06615,-0.0455 0.02479,0.007 0.05374,0.0841 0.03721,0.005 0.07441,0.0193 0.04134,0.0537 0.01654,0.073 0.08543,0.008 h 0.128162 l 0.04547,0.0207 0.01101,0.0372 0.04685,0.0234 0.03171,0.0248 0.03858,-0.0124 0.02204,-0.0262 0.02066,-0.022 h 0.06339 l 0.0813,0.0317 0.103354,0.0551 0.07992,0.0358 0.100598,0.0124 0.103354,-0.011 0.06063,0.0262 0.195683,0.11989 0.208084,0.0951 0.05788,0.0303 0.07993,0.0289 0.09233,0.0165 0.150207,0.0482 0.08819,0.0303 0.04823,0.0331 0.05237,0.0565 0.192924,0.12402 0.114379,0.0538 0.126781,0.0634 0.15985,0.1254 0.203952,-0.0165 0.04547,0.0386 0.06615,0.0138 0.04134,0.0303 0.04134,0.007 0.03306,0.0317 0.0303,0.0276 0.03997,0.0289 0.06339,0.0331 0.181901,0.0234 0.04685,0.0234 0.08958,0.113 0.136427,0.0537 0.07993,0.0345 0.0813,0.0469 0.136427,0.0717 0.14469,0.10886 0.09095,0.0868 0.230135,0.0786 0.191547,0.12403 0.128157,0.11713 0.241157,0.14745 0.249422,0.0868 0.391367,0.15434 0.395494,0.0482 0.542946,-0.0262 0.527791,-0.10887 0.458888,-0.0799 0.494712,-0.011 0.210841,0.0193 0.221867,0.17364 0.249425,0.0262 0.07854,0.0978 0.451999,-0.10611 0.139181,10e-4 0.937064,0.0634 0.329354,0.0703 0.213598,0.0868 0.296275,0.16812 0.487825,0.2508 0.294902,0.16399 0.103352,0.0758 0.143317,0.10611 0.06339,0.0372 0.06201,0.0234 0.161229,0.10197 0.150206,0.12127 0.08819,0.0427 0.119888,0.0427 0.04823,0.0331 0.113001,0.0689 0.100595,0.15434 0.02755,0.0593 0.03031,0.0193 0.03583,0.003 0.06063,-10e-4 0.05926,-0.001 0.03859,0.005 0.02479,0.0469 -0.0041,0.0331 0.0083,0.0565 0.01516,0.0276 0.02755,0.0165 0.112998,0.0441 0.08131,0.04 0.151586,0.11989 0.259069,0.25769 0.186036,0.13781 0.270095,0.15847 0.264583,0.1378 0.232889,0.11851 0.181899,0.0537 0.179149,0.0579 0.192924,0.0234 0.438216,0.10749 0.219107,0.0551 0.195683,0.0675 0.256312,-0.0951 0.214977,-0.0344 0.281117,-0.091 0.158475,-0.007 0.133673,-0.0234 0.146071,-0.0372 0.228753,-0.0469 0.205327,-0.0262 0.216353,-0.0179 h 0.41479 l 0.239778,0.0207 0.263205,0.0303 0.188791,0.0951 0.296278,0.11438 0.52641,0.37483 0.158474,0.17087 0.356913,0.12816 0.24529,0.18328 0.09646,-0.0248 0.212217,0.17225 0.0441,0.13506 0.124021,0.0207 0.05375,0.0537 0.442347,0.2632 0.712446,0.3266 0.289391,0.0579 0.988052,0.0441 0.39825,0.007 1.150663,0.38034 0.06339,0.0882 0.186034,0.0496 0.243914,0.0744 0.261829,0.18052 0.187413,0.0331 0.450617,0.16399 0.180522,0.0978 0.230132,0.32797 1.194761,0.55673 1.179599,0.19706 0.764813,0.1502 0.545703,0.0413 0.344509,-0.008 0.425815,-0.0331 0.253558,-0.11437 0.24529,-0.0827 0.556728,0.0165 0.249426,0.0482 0.103354,-0.0331 0.3762,0.12403 0.421683,0.0896 0.748273,0.41204 0.216352,0.0923 0.257694,0.31971 1.758379,1.69774 0.742759,0.69315 1.080381,1.10243 1.561326,0.8351 1.17684,0.73311 1.11759,0.74828 1.45521,0.95498 0.13781,0.091 0.0441,0.0441 0.01,0.0427 0.0331,0.022 0.0579,0.0441 0.11713,0.0978 0.0868,0.0565 0.0606,0.0358 0.1006,0.073 0.12816,0.1199 0.16123,0.0965 0.0565,0.13918 0.13366,0.17088 0.0799,0.0303 0.0689,0.0179 0.0813,0.1819 0.0882,0.11438 0.0937,0.15572 0.20119,0.19706 0.0786,0.11299 0.11851,0.1571 0.0772,0.16124 0.12265,0.1626 0.0868,0.0923 0.0744,0.0482 0.0606,0.30179 0.12265,0.0717 0.0124,0.0413 0.04,0.007 0.1006,0.0537 0.0482,-0.0207 0.051,0.033 -0.0207,0.0358 0.0496,0.0317 0.26596,0.17363 0.051,0.008 0.0689,0.0524 0.22186,0.11576 0.1323,0.0275 0.0345,0.0427 0.004,0.0662 0.0868,0.022 0.0441,0.0193 0.004,0.04 0.13643,0.0854 -0.0179,0.0965 0.022,0.0276 0.0165,0.0441 0.001,0.04 0.0358,0.0289 0.0551,0.0165 0.10059,0.0441 0.004,0.0289 0.21773,0.22462 0.0978,-0.0152 0.051,0.04 0.11713,0.091 0.28664,0.0372 0.30316,0.20532 0.27286,0.19017 0.001,0.051 0.0303,0.0441 0.0648,0.0524 0.0331,0.0496 0.23426,0.18879 0.0675,0.0455 0.0717,0.022 0.0579,0.0413 0.0524,0.0248 0.0648,0.0275 0.0303,0.0289 0.0262,0.0207 0.0482,0.011 0.0441,0.04 0.0675,0.0413 0.0441,0.008 0.0772,0.0317 0.0289,0.0289 0.0234,0.0303 0.0358,-0.003 0.0565,-0.0275 0.0965,0.11162 0.12953,0.0965 0.14883,0.0689 0.23013,0.073 0.0992,0.0427 0.0524,0.0565 0.0813,0.0358 0.0234,0.0262 0.0896,0.0193 h 0.0331 l 0.022,0.04 0.0413,0.0276 0.006,0.0179 0.007,0.0275 0.0207,0.0207 0.0386,-0.0165 0.0965,0.004 0.18604,0.12403 0.0276,10e-4 0.0785,0.0551 0.003,0.0289 0.0482,0.04 0.0358,0.0372 0.10197,0.0689 0.10887,0.0799 0.0234,0.0386 0.0565,-0.004 0.0772,0.0331 0.0482,0.13367 0.0675,0.04 0.0496,0.0248 0.0772,-0.0179 0.0827,0.0165 0.0372,0.0841 0.14469,0.0524 0.0276,0.0386 0.0565,0.0179 0.10198,0.0165 0.15296,-0.0152 0.5581,0.17088 1.35185,0.92742 0.49334,0.40376 0.24254,0.30042 0.0841,0.12126 0.0207,0.04 0.0165,0.051 0.0248,0.0744 0.0372,0.0592 0.0854,0.10887 0.0689,0.0593 0.0468,0.0482 0.0358,0.0716 0.0303,0.0937 0.0179,0.0717 0.0207,0.0937 0.0551,0.0965 0.0882,0.11437 0.12402,0.11576 0.25494,0.21497 0.49471,0.55122 0.82958,1.09416 0.50574,0.66973 0.25907,0.34451 0.16123,0.21497 0.11576,0.2508 0.14607,0.3142 0.11713,0.24391 0.10198,0.2384 0.19981,0.48093 0.10749,0.35554 0.14745,0.47818 0.0882,0.48369 0.11161,0.64906 0.0827,0.42719 0.0813,0.48782 0.0689,0.62288 0.0799,0.41341 0.0896,0.29214 0.0813,0.226 0.11851,0.26872 0.0744,0.19844 0.14056,0.34313 0.13229,0.30316 0.12954,0.26872 0.1943,0.40377 0.17915,0.34037 0.0896,0.17777 0.26872,0.42719 0.21497,0.35003 0.14745,0.26871 0.18604,0.35829 0.17501,0.35003 0.12678,0.27836 0.1378,0.3073 0.22049,0.50436 0.29628,0.57051 0.19981,0.52503 0.45613,1.33945 0.77721,2.14561 0.10474,0.13642 0.27561,0.36794 0.37069,0.47405 0.10059,0.22048 0.18052,0.14194 1.03078,1.42489 0.53192,0.73036 0.63666,1.47726 0.30316,0.28663 0.1006,0.26459 0.31695,0.7841 0.23013,0.49471 0.0193,0.0661 0.0468,0.062 0.0152,0.0413 -0.003,0.0248 0.0248,0.0551 -0.003,0.0179 0.0207,0.0413 0.0703,0.0896 0.0841,0.23289 0.0179,0.0386 0.011,0.0551 0.0289,0.0441 0.0785,0.23013 -0.011,0.0827 0.0482,0.0427 0.004,0.0303 0.0289,0.0289 v 0.0331 l 0.0482,0.0827 0.0317,0.0896 0.003,0.0592 0.0193,0.0772 0.0276,0.0496 -0.0138,0.0744 -0.0427,0.0661 -0.0413,0.0441 0.007,0.0317 0.0124,0.0524 0.0262,0.051 0.022,0.0648 0.0193,0.10198 0.0386,0.13505 0.0634,0.0303 0.011,0.0482 0.0165,0.0579 0.0124,0.0951 -0.0124,0.0551 -0.0469,0.0937 -0.0193,0.011 -0.0262,0.011 -0.0152,0.0276 v 0.0372 l 0.0165,0.0689 0.01,0.0248 0.051,0.003 0.0455,-0.007 0.0317,-0.0248 0.0579,0.0579 -0.001,0.0841 -0.001,0.11024 0.008,0.0896 -0.0138,0.19431 -0.0275,0.11713 0.0275,0.0813 0.0193,0.0978 0.0785,0.13368 -0.0124,0.14469 -0.0358,0.0854 0.0165,0.0909 -0.0179,0.42305 -0.001,0.43409 -0.0193,0.514 -0.0179,0.25908 -0.0193,0.19292 -0.0551,0.44097 0.0124,0.0758 0.11989,0.23426 -0.0537,0.0276 -0.004,0.0179 -0.0648,0.0344 -0.004,0.0207 0.0331,0.12953 -0.0124,0.01 0.007,0.0331 0.007,0.0193 0.011,0.0276 0.0179,0.0234 0.0441,-0.0124 0.0207,-0.0138 -0.004,-0.0276 v -0.0344 l -0.001,-0.0248 0.0358,-0.007 0.0138,-0.0152 0.46302,0.2894 0.48783,0.2756 0.0275,0.0772 -0.0496,0.0124 -0.0524,0.0138 -0.04,0.0248 -0.01,0.0413 0.01,0.04 0.0482,0.0303 0.15572,-0.0372 0.004,-0.0138 0.25218,-0.0703 0.40101,-0.25907 0.0965,-0.19017 -0.0537,-0.0648 -0.23565,0.0165 -0.36104,-0.58016 0.006,-0.10886 0.0165,-0.011 0.66008,-0.38172 0.0234,-0.008 0.19706,-0.022 0.10749,-0.0772 0.008,-0.0289 0.34038,-0.25769 0.10197,-0.0165 0.5209,0.75103 0.1447,0.35416 0.0358,0.0758 -0.0979,0.0896 -0.0124,0.0579 0.01,0.0579 -0.16536,0.15709 -0.28388,0.13367 -0.20119,0.18466 -0.54984,0.26044 -0.19155,0.22325 -0.28939,0.0841 -0.0634,0.0386 -0.0372,0.0179 -0.0207,-0.007 -0.0152,0.001 -0.0124,0.008 -0.0138,0.011 -0.004,0.0234 0.007,0.0248 0.0138,0.0193 0.0262,0.004 0.0248,-0.004 0.0386,-0.0152 0.3831,-0.0965 0.43959,0.288 0.97565,0.71658 0.85163,0.6215 1.14928,1.02388 0.39136,0.37759 0.26872,0.31143 0.38999,0.49196 0.0703,0.0965 0.33762,0.47819 0.35966,0.5705 0.26321,0.51401 0.4079,0.79375 0.13091,0.3073 0.19706,0.48094 0.0138,0.0345 -0.0262,0.0413 0.0331,0.0703 0.0593,0.0606 0.11024,0.31695 0.21911,0.63114 0.011,0.0372 0.0482,0.13092 0.0634,0.0937 0.17363,0.4892 0.14056,0.38861 0.0537,0.15158 0.62288,1.79834 0.006,0.0345 -0.007,0.0289 -0.0689,0.0427 -0.001,0.0317 0.0165,0.0276 0.0648,0.0152 0.0124,0.007 0.01,0.008 0.003,0.0689 0.0469,0.084 0.0207,0.0551 0.13643,0.41754 0.17363,0.57602 0.23151,0.86127 0.0138,0.0524 0.008,0.0565 0.13367,0.43822 0.001,0.0868 -0.0317,0.0675 -0.13643,0.073 -0.0331,0.0496 -0.011,0.0606 0.073,0.23702 0.0455,0.04 0.0593,0.022 0.13229,0.0455 0.0813,0.0827 0.0455,0.1006 0.19155,0.8282 -0.006,0.18328 -0.0524,0.15296 -0.16813,0.32797 -0.0441,0.17915 0.0248,0.11851 0.0193,0.0841 0.022,0.10473 0.0592,0.14745 0.11162,0.12816 0.2949,0.18328 0.0593,0.0606 0.0386,0.10887 0.003,0.0303 0.0179,0.24805 0.0524,0.3955 0.073,0.53329 0.008,0.0345 0.12403,0.64768 -0.062,0.007 -0.006,0.062 0.0179,0.062 0.0275,0.0703 0.0234,0.0317 0.003,0.52641 0.0165,0.94671 0.007,0.35416 -0.01,0.99356 -0.10198,0.68764 -0.0262,0.1888 -0.0441,0.31281 -0.0124,0.0854 -0.0606,0.4203 -0.007,0.17363 -0.0289,0.13367 -0.1006,0.69178 -0.008,0.0606 -0.0372,0.2577 -0.0634,0.66008 -0.24529,0.6711 -0.14056,0.27009 -0.25494,0.339 -0.0799,0.10749 -0.14607,0.19293 -0.0758,0.0758 -0.0331,0.0289 -0.011,0.022 -0.0124,0.0152 -0.0579,0.0441 -0.0661,0.0524 -0.0358,0.0372 -0.051,0.0537 -0.0289,0.0372 -0.0289,0.0317 -0.004,0.0303 -0.007,0.006 -0.0345,0.003 -0.008,0.006 -0.0138,0.0234 -0.0703,0.0675 -0.0468,0.0427 -0.0455,0.0455 -0.0289,0.0303 -0.01,0.0262 -0.0138,0.01 -0.0207,0.0152 -0.011,0.004 -0.0579,0.0482 -0.0317,0.007 -0.0331,0.0234 -0.0345,0.0289 -0.0386,0.0303 -0.0317,0.0275 -0.0124,0.011 -0.0207,0.0138 -0.0193,0.004 -0.051,10e-4 -0.0303,-0.0124 -0.0234,-0.0124 -0.0248,-0.0207 -0.0234,-0.011 -0.0276,-0.01 -0.0234,-0.003 -0.0138,0.006 -0.01,0.0124 -0.004,0.0317 0.003,0.04 0.007,0.0248 0.0165,0.0317 0.0165,0.0289 0.0179,0.0317 0.0207,0.0207 0.0179,0.0165 0.0276,0.0124 0.0345,0.0165 0.0303,0.006 0.0565,-0.003 0.062,0.001 h 0.0593 l 0.0482,0.0124 0.051,0.011 0.0427,0.01 0.051,0.0165 0.0758,0.0124 0.0482,0.004 0.0248,-0.0124 0.0193,-0.0262 0.0165,-0.0262 0.006,-0.0276 v -0.0193 l -0.007,-0.0207 10e-4,-0.01 0.0138,-0.0165 0.0179,-0.0331 0.0262,-0.0248 0.0579,-0.0496 0.0634,-0.0565 0.062,-0.0606 0.0909,-0.0896 0.0648,-0.0648 0.12816,-0.12679 0.16812,-0.14882 0.17639,-0.15572 0.051,-0.0441 0.0689,-0.0689 0.0317,-0.0289 0.0372,-0.04 0.0358,-0.0317 0.13505,-0.1254 0.0124,-0.0124 0.43547,-0.40101 0.18879,-0.18466 0.0785,-0.0799 0.22325,-0.23013 0.008,-0.008 0.01,-0.007 h 0.004 l 0.005,0.003 0.0152,0.011 0.0138,0.0152 0.011,0.011 0.17639,0.1943 0.001,0.0124 -0.004,0.0124 -0.0358,0.0455 -0.0248,0.0372 -0.007,0.0152 -0.0661,0.37896 0.001,0.004 0.004,0.003 0.1695,10e-4 0.10198,-0.0317 0.0772,0.006 0.011,0.01 0.005,0.01 -0.007,0.14469 -0.003,0.01 -0.008,0.007 -0.63666,-0.0262 -0.16398,-0.008 -0.0138,10e-4 -0.0152,0.007 -0.15985,0.15159 -0.0152,0.022 -0.004,0.0248 -0.0124,0.25356 0.004,0.0165 0.007,0.0152 0.21222,0.23013 0.0138,0.011 0.0179,0.003 0.45338,0.0138 0.0152,0.006 0.0124,0.007 0.11437,0.12954 0.01,0.008 h 0.0124 l 0.10887,0.01 0.01,0.004 0.003,0.007 -0.005,0.10611 -0.01,0.01 -0.0193,0.001 -0.12678,-0.007 -0.27837,-0.0152 -0.0138,-0.001 -0.0152,-0.007 -0.1006,-0.0537 -0.0179,-0.007 -0.0179,-10e-4 -0.41066,-0.0138 -0.0345,-0.003 -0.0372,0.0207 -0.22186,0.21911 -0.22324,0.19706 -0.17777,0.18741 -0.16261,0.16674 -0.051,0.0496 -0.0565,0.04 -0.0937,0.0427 -0.04,0.0179 -0.0427,0.0193 -0.0372,0.0138 -0.011,0.004 -0.0207,0.0331 -0.0275,0.0303 -0.0165,0.011 -0.011,0.001 -0.0193,-0.004 -0.0441,-0.0138 -0.0303,-0.01 -0.008,-10e-4 -0.011,-0.005 -0.007,-0.001 -0.007,0.001 -0.0124,10e-4 -0.0138,0.003 -0.0165,0.006 -0.008,0.006 -0.008,0.01 -0.062,-0.0152 -0.04,-0.0138 -0.0275,-0.0152 -0.01,-0.004 -0.0207,-0.0165 -0.0152,-0.0165 -0.022,-0.0165 -0.0276,-0.003 -0.0234,0.022 -0.0193,0.0248 -0.04,0.0207 -0.051,0.0248 -0.46439,0.007 -0.226,0.004 -0.16261,0.004 h -0.0678 l -0.051,-0.007 -0.0703,-0.0165 -0.0565,-0.0179 -0.0551,-0.0248 -0.0441,-0.0482 -0.022,-0.0579 -0.011,-0.0234 -0.0179,-0.0345 -0.0193,-0.0317 -0.0289,-0.0537 -0.0179,-0.022 -0.0234,-0.008 h -0.0345 l -0.0289,0.011 -0.0276,0.0165 -0.0262,0.0317 -0.0193,0.0496 -0.0124,0.0234 -0.0248,0.0276 -0.0317,0.0413 -0.0289,0.0413 -0.0262,0.0331 -0.0896,0.0992 -0.0937,0.0799 -0.11162,0.0978 -0.15572,0.11989 -0.14193,0.0965 -0.15159,0.10198 -0.39963,0.25769 -0.50988,0.34726 -0.26733,0.18053 -0.3514,0.2384 -0.42031,0.30868 -0.29489,0.1943 -0.18604,0.14608 -0.11162,0.10059 -0.11989,0.10611 -0.1006,0.0992 -0.0951,0.11437 -0.0841,0.0951 -0.113,0.11575 -0.23151,0.21636 -0.17915,0.1502 -0.13091,0.1447 -0.17226,0.17776 -0.15296,0.17364 -0.25218,0.25493 -0.24115,0.25907 -0.10473,0.10887 -0.11025,0.13229 -0.19568,0.24254 -0.20395,0.25493 -0.37758,0.60634 -0.40928,0.66835 -0.0248,0.0689 -0.0234,0.0744 -0.008,0.0827 -0.0634,0.14745 -0.0386,0.11989 -0.0179,0.0372 -0.0179,0.022 -0.0207,0.0165 -0.0207,0.0138 -0.0207,0.0193 -0.0372,0.051 -0.0344,0.0648 -0.0896,0.18328 -0.1571,0.34588 -0.0772,0.19569 -0.0772,0.20808 -0.10473,0.25631 -0.0413,-0.008 -0.0179,0.04 0.008,0.0358 0.006,0.0813 -0.1061,0.1378 -0.0234,0.0593 -0.0786,0.15434 -0.0358,0.022 -0.0813,0.17226 -0.004,0.0717 -0.0496,0.0606 0.008,0.10473 -0.12127,0.27423 -0.04,0.15985 -0.12264,0.19431 -0.0868,0.15847 -0.0179,0.10335 -0.0703,0.12127 -0.0469,0.0303 -0.23151,0.39137 -0.20808,0.29077 -0.0799,-0.0414 -0.16261,0.33073 -0.30868,0.40652 -0.34451,0.4148 -0.0675,0.0551 -0.0937,0.0841 -0.0289,0.0937 -0.26045,0.27974 -0.12402,0.22738 -0.17088,0.19844 -0.48507,0.54157 -0.20808,0.26183 -0.27699,0.31281 -0.15572,0.10887 -0.2632,0.38722 -0.15572,0.19017 -0.36518,0.39688 -0.011,0.0827 -0.0427,0.0496 -0.0565,0.10335 -0.0344,0.0441 -0.0661,0.0152 -0.0207,0.0413 -0.0276,0.0772 -0.24253,0.33762 -0.0427,0.0427 -0.0717,0.0593 -0.0207,0.0551 -0.0358,0.0441 -0.0317,0.0317 -0.0675,0.04 -0.0744,0.0841 0.001,0.0345 0.0207,0.0358 0.0303,0.0482 -0.0179,0.04 -0.0358,0.0386 -0.0482,-0.0165 -0.0345,0.004 -0.0276,0.0207 -0.0923,0.0772 -0.022,0.001 v 0.0358 l 0.04,0.0248 0.0138,0.0482 -0.0358,0.0469 -0.0289,-0.003 -0.0276,0.007 0.004,0.0248 0.0152,0.0289 -0.005,0.0262 -0.0441,0.0427 -0.0372,-0.006 -0.10611,0.12264 0.0372,0.0703 10e-4,0.0717 -0.0606,0.0537 -0.0276,0.001 -0.0165,0.011 -0.0207,0.022 -0.0152,0.0289 -0.0262,0.0413 -0.0317,0.0469 -0.0496,0.0703 -0.0841,0.11024 -0.0675,0.0978 -0.011,0.0799 0.011,0.0661 -0.022,0.062 -0.0579,0.0317 -0.14056,0.24253 -0.2508,0.25632 -0.47405,0.67799 -0.1695,0.31281 -0.008,0.0303 0.007,0.0317 0.0468,0.0331 0.01,0.0262 -0.003,0.0179 -0.0372,0.0331 -0.003,0.0152 0.006,0.0124 0.0317,0.008 0.0358,0.0303 -0.003,0.0152 -0.0124,0.011 -0.0758,-0.008 -0.0717,0.007 -0.0207,0.0275 0.008,0.0276 0.0482,0.062 0.006,0.0234 -0.0165,0.0248 -0.13092,-0.0207 -0.0317,0.0538 -0.001,0.0579 0.0799,0.1254 v 0.0331 l -0.0165,0.0138 h -0.0744 l -0.0606,0.0455 -0.0317,0.0744 0.0289,0.0606 -0.004,0.0441 -0.0165,0.022 -0.0482,0.011 -0.008,0.0165 0.007,0.011 0.0758,0.0358 0.0165,0.0262 -0.0207,0.0207 -0.0427,-0.004 -0.0758,0.003 -0.0165,0.0193 -0.004,0.0179 0.0386,0.04 0.008,0.0441 -0.0275,0.0524 -0.004,0.008 0.008,0.0841 -0.0413,0.0469 v 0.011 l -0.001,0.0207 0.0248,0.0455 0.0427,0.022 0.003,0.051 -0.0289,0.0275 -0.0758,-0.0262 h -0.011 l -0.0124,0.0179 -0.0593,0.2508 -0.011,0.13643 -0.0262,0.0923 -0.003,0.0372 -0.007,0.0358 -0.01,0.0648 -0.022,0.0896 -0.01,0.0524 -0.0358,0.11852 -0.0496,0.16674 -0.0661,0.0551 -0.0537,0.0345 -0.0289,0.0179 -0.0648,0.0455 -0.0234,0.0703 0.0165,0.051 0.0662,0.0441 0.0772,0.0661 0.0262,0.0965 0.0441,0.0827 -0.007,0.0703 0.01,0.0868 0.022,0.15435 0.006,0.10611 0.001,0.0965 -0.004,0.0965 0.0165,0.0331 -0.005,0.0345 0.0165,0.0345 0.0138,0.0386 0.004,0.0703 0.0179,0.12678 -0.003,0.0717 -0.008,0.0524 -0.0165,0.0551 -0.0124,0.0289 0.005,0.0758 0.0248,0.0386 0.0331,0.0317 0.0358,0.0482 0.0152,0.0207 0.0276,0.0276 0.051,0.0634 0.1006,0.14607 0.0537,0.13229 0.113,0.23426 0.14056,0.32109 0.0882,0.20808 0.1378,0.17915 0.17088,0.18741 0.0785,0.15847 0.22876,0.22049 0.24391,0.23564 0.0303,0.0289 0.15985,0.15434 0.10886,0.12403 0.38448,0.44648 0.31005,0.43271 0.226,0.17776 0.19844,0.19981 0.24116,0.2329 0.10886,0.15709 0.24667,0.2508 0.14469,0.21636 0.18053,0.18052 0.13918,0.17088 0.0951,0.0813 0.10887,0.17088 0.18879,0.21221 0.13505,0.0937 0.0951,0.0868 0.0854,0.0951 0.14469,0.16123 0.0717,0.0951 0.0482,0.0592 0.0469,0.0496 0.0537,0.10336 0.0662,0.0909 0.0606,0.0799 0.13505,0.16261 0.091,0.11024 0.0978,0.13367 0.16674,0.24392 0.0785,0.10335 0.062,0.0854 0.0579,0.10335 0.18328,0.19155 0.0978,0.12127 0.0579,0.0841 0.0992,0.13091 0.11162,0.18879 0.0992,0.16674 0.18604,0.14883 0.25632,0.31695 0.45061,0.59945 0.19018,0.26596 0.35553,0.67524 0.23426,0.30317 0.11989,0.26182 0.0827,0.18466 0.12678,0.12953 0.0455,0.0372 -0.0275,0.0896 0.0275,0.14882 0.13092,0.0179 0.13918,0.21221 0.0413,0.33762 0.22048,0.3831 0.1888,0.34727 0.0951,0.3073 0.12678,0.23013 0.1571,0.27423 0.1502,0.34864 0.13367,0.44786 0.15434,0.38585 0.11851,0.50023 0.01,0.21911 0.23427,0.9536 0.10611,0.4768 0.14331,0.65044 0.0799,0.27285 0.10611,0.14883 0.0496,0.5898 0.17363,2.28479 0.40239,2.10426 0.10059,0.49747 0.0675,0.74139 0.27423,0.8406 0.0124,0.26596 0.0923,0.97979 0.0634,0.31143 0.16261,0.74139 0.0675,0.31833 0.28387,0.82406 0.091,0.46991 0.0317,0.21498 0.15572,0.53881 v 0.22186 l 0.10335,0.42995 0.0799,0.55811 -0.0634,0.12815 0.007,0.11852 0.0289,0.0524 0.13091,0.11576 0.0358,0.14331 0.0951,0.23427 0.0882,0.36242 0.28663,0.72623 0.19155,0.67248 0.12264,0.43408 0.20396,0.70142 0.11575,0.13092 0.0441,0.15572 -0.008,0.0909 0.0758,0.11162 0.0675,0.20395 0.0496,0.52503 0.091,0.26183 0.0923,0.2949 0.0923,0.35691 0.113,0.39963 0.0744,0.46578 0.12815,1.33807 -0.0331,0.339 0.0262,0.19706 0.0124,0.1378 0.007,0.19706 -0.007,0.39274 -0.004,0.0289 -0.0262,0.17363 -0.006,0.0937 -0.0427,0.17501 -0.0344,0.27285 -0.0482,0.45614 -0.0152,0.29765 -0.0248,0.25631 -0.0207,0.30869 -0.006,0.14331 -0.0345,0.226 -0.011,0.16812 -0.0138,0.12402 -0.0179,0.25908 -0.0248,0.16398 -0.0469,0.0744 0.0179,0.0592 -0.11575,0.48507 -0.1323,0.56362 0.21498,0.0937 0.11024,0.0496 -0.0152,0.0675 -0.14745,-0.003 -0.18052,-0.0276 -0.0827,0.45337 -0.1254,0.3762 -0.11989,0.47129 -0.13229,0.55398 -0.0827,0.30454 -0.13918,0.59256 -0.12816,0.62563 -0.0524,0.28939 -0.0689,0.23427 -0.0179,0.16536 -0.15434,0.56086 -0.0124,0.0799 -0.0262,0.0786 -0.0152,0.0951 0.001,0.0703 -0.003,0.0744 -0.008,0.22875 -0.004,0.0524 -0.0124,0.10611 0.006,0.1006 0.003,0.10886 -0.0193,0.0744 -0.0152,0.113 0.003,0.11575 -0.0317,0.15158 0.0152,0.0565 -0.0138,0.0469 -0.007,0.0661 -0.0179,0.0965 -0.011,0.11989 v 0.0868 l -0.0152,0.0634 -0.0152,0.0758 0.008,0.073 -0.0275,0.13091 -0.007,0.13781 -0.0248,0.15158 -0.0303,0.18053 10e-4,0.11437 -0.0234,0.19844 0.008,0.20395 -0.008,0.0303 0.007,0.0276 0.004,0.0455 0.008,0.11576 -0.0165,0.11575 -0.0455,0.22876 -0.0275,0.0524 0.0262,0.0386 -0.0289,0.0303 v 0.0593 l -0.0317,0.0482 0.0234,0.073 0.001,0.0758 -0.007,0.0758 0.007,0.0579 -0.04,0.10747 -0.005,0.0896 0.0248,0.0813 0.0207,0.0496 -0.007,0.0496 -0.006,0.0634 -0.0165,0.19156 -0.0193,0.10197 -0.01,0.22463 0.003,0.0827 -0.0152,0.0841 0.01,0.21222 -0.003,0.11023 0.0441,0.19018 0.006,0.0703 0.0179,0.0758 0.0331,0.0703 0.0152,0.21085 0.022,0.15433 0.0317,0.0164 0.0248,0.0579 0.0317,0.033 0.0289,0.051 0.0262,0.0648 0.04,0.0744 0.0358,0.0441 0.0758,0.0827 0.0345,0.0675 0.0234,0.0744 0.0413,0.0579 0.10611,0.15161 0.0427,0.0661 -0.001,0.0482 0.0965,0.15708 0.062,0.11575 0.0551,0.0758 -0.003,0.0151 -0.003,0.033 0.008,0.0236 0.0179,0.0358 0.0248,0.0303 0.0317,0.0358 0.011,0.018 0.0193,0.0455 0.0248,0.0538 0.0152,0.0482 0.006,0.04 v 0.0469 l 0.004,0.0236 -0.0138,0.0164 0.0262,0.0717 0.003,0.0537 0.0331,0.0786 0.04,0.0524 0.0372,0.0689 0.01,0.0717 0.0138,0.0689 0.01,0.0951 0.0234,-0.007 0.0234,0.003 0.011,0.0233 -0.0179,0.0206 -0.0276,0.0138 0.01,0.0868 0.0234,0.1075 0.004,0.16811 0.0441,0.11301 0.0703,0.11575 0.11438,0.1819 0.13505,0.15571 0.10749,0.13367 0.11024,0.10612 0.0661,0.0827 0.14194,0.0675 0.051,-0.007 0.0937,-0.0151 0.0565,0.0593 0.0441,0.0703 0.0868,0.0689 0.0978,0.062 0.18052,0.10335 0.10611,0.0978 0.19155,0.0758 0.0978,0.0675 0.23013,0.1323 0.27561,0.10197 0.19568,0.0978 0.14332,0.0372 0.21911,0.1392 0.47404,0.1433 0.226,0.0744 0.14745,0.11989 0.14331,0.11162 0.19569,0.0551 0.0744,0.0579 0.113,0.0606 0.1006,0.0675 0.15709,0.0882 0.226,0.12954 0.11024,0.062 0.13781,0.10887 0.10611,0.0841 0.15434,0.0262 0.0854,0.0538 0.14332,0.0909 0.1006,0.0854 0.27147,0.15711 0.1571,0.0951 0.13918,0.0951 0.13229,0.0675 0.27974,0.17777 0.10473,0.0896 0.12403,0.0868 0.15434,0.10197 0.10197,0.0717 0.0799,0.062 0.12264,0.0868 0.10198,0.062 0.10473,0.084 0.86954,0.67387 0.64768,0.56499 1.0101,1.10107 0.8282,1.1603 0.31695,0.42167 0.15159,0.0978 0.14193,0.24117 0.226,0.2563 1.08589,1.23611 0.47543,0.59531 0.32797,0.44373 0.68075,1.22645 0.20395,0.50438 0.61047,1.37115 0.2012,0.48093 0.36655,0.91501 0.14332,0.44923 0.0386,0.13367 0.0455,0.1075 0.0482,0.12676 0.0413,0.16399 0.0358,0.13092 0.0606,0.1185 0.10473,0.26874 0.0689,0.16121 0.0496,0.14195 0.0455,0.11301 0.0262,0.084 0.0565,0.14608 0.0303,0.10747 0.0179,0.062 -0.003,0.0455 0.04,0.0537 0.0262,0.018 -0.0152,0.0496 0.0592,0.11991 0.0551,0.13504 0.0345,0.10473 0.011,0.11713 0.0785,0.1075 0.073,0.1557 0.0207,0.0151 0.004,0.0206 -0.003,0.0236 0.0124,0.0206 -0.003,0.022 0.0413,0.0138 10e-4,0.0344 0.0606,0.006 -0.04,0.0331 0.0579,0.0413 0.0234,0.0579 0.006,0.0634 0.10748,0.17225 0.0276,0.084 0.0262,0.0551 0.0317,0.0206 -0.003,0.0276 0.0165,0.062 0.0358,0.0551 0.0758,0.1075 0.0345,0.1116 0.0579,0.12128 0.0606,0.14193 0.0345,0.11438 0.0579,0.11713 0.073,0.15711 0.0689,0.14607 0.0661,0.14468 0.0124,0.0289 0.0703,0.15846 0.0909,0.18053 0.0827,0.12679 0.11713,0.20118 0.091,0.17778 0.13918,0.17637 0.12678,0.17777 0.073,0.0965 0.0248,0.0786 0.0979,0.0868 0.0923,0.13505 0.0841,0.13642 0.0799,0.113 0.0896,0.0978 0.10059,0.0799 0.0689,0.10748 0.0689,0.10612 0.0551,0.0399 0.0248,0.0538 -0.0303,0.0386 0.0786,0.10473 0.0813,0.0992 0.12678,0.0634 0.13229,0.10472 0.0937,0.10062 0.13505,0.15571 0.10335,0.0579 0.0482,0.0249 0.0455,0.0716 0.11438,0.12542 0.1571,0.1116 0.0992,0.113 0.11162,0.0469 0.0868,0.0744 0.13505,0.0593 0.0661,0.0496 0.0482,0.0193 0.0317,-0.006 0.0372,0.0317 0.0345,0.0164 0.0482,0.051 0.12126,0.0731 0.0979,0.0813 0.11713,0.062 0.14194,0.0661 0.15709,0.11025 0.2384,0.12541 0.15297,0.0441 0.12402,0.0772 0.16399,0.0827 0.17914,0.0758 0.14883,0.0841 0.18052,0.0964 0.11438,0.0345 0.0565,0.007 0.11438,0.0524 0.0854,0.0551 0.0758,0.0345 0.0703,0.0358 0.11437,0.0344 0.13505,0.0744 0.0923,0.0441 0.13918,0.0634 0.0661,0.0413 0.17501,0.10197 0.34175,0.1764 0.17364,0.1185 0.22462,0.10613 0.68626,0.49331 0.0785,0.0593 0.0661,0.0275 0.0978,0.0882 0.13092,0.10334 0.2384,0.2081 0.13918,0.10334 0.14469,0.11713 0.3266,0.24255 0.18052,0.1116 0.0579,0.0965 0.13918,0.0593 0.0482,0.0524 0.29904,0.23151 0.15296,0.10885 0.10611,0.11026 0.14193,0.11713 0.19431,0.14332 0.1006,0.11988 0.0896,0.091 0.0799,0.0634 0.0799,0.0441 0.10473,0.0978 0.12816,0.0827 0.18328,0.15295 0.226,0.27699 0.0262,0.0661 0.073,0.051 0.226,0.2632 0.0896,0.1323 0.1006,0.16949 0.0799,0.11713 0.0896,0.14607 0.10197,0.11438 0.0854,0.0965 0.0689,0.10888 0.10473,0.18878 0.0758,0.11575 0.11576,0.17362 0.12678,0.19984 0.0799,0.14192 0.0455,0.0978 0.10059,0.13779 0.0413,0.0744 0.0303,0.051 0.0248,0.0455 0.0634,0.0992 0.062,0.1116 0.11852,0.17227 0.19292,0.19015 0.0345,0.0455 0.0606,0.0731 0.0813,0.0896 h 0.0372 l 0.003,-0.0386 0.0538,0.0111 0.0882,0.0427 0.0675,0.0482 0.0717,0.0882 0.0868,0.1075 0.0758,0.0813 0.0689,0.0716 0.0772,0.0455 0.10473,0.0992 0.12954,0.0799 0.0758,0.0138 0.0579,0.0579 0.0841,0.0193 0.0813,-0.0124 h 0.0703 l 0.1254,0.006 0.10336,0.003 0.0827,-0.0124 0.13091,0.0206 0.1888,0.0262 0.14193,-0.0262 0.15986,-0.0124 0.18879,-0.003 0.22737,-0.0289 0.18466,-0.0427 0.226,-0.0249 0.28525,-0.0675 0.1819,-0.0427 0.19568,-0.0372 0.30317,-0.0565 0.18879,-0.0551 0.12816,-0.0262 0.17639,-0.0496 0.23702,-0.0345 0.23151,-0.0413 0.11989,-0.0358 0.14883,-0.0151 0.0165,-0.006 0.10335,-0.0358 0.13505,-0.0441 0.19706,-0.0496 0.20257,-0.0427 0.1943,-0.01 0.0882,-0.0372 0.0909,0.006 0.17501,-0.0565 0.13091,-0.0399 0.12954,-0.0151 0.19292,-0.062 0.2012,-0.0413 0.14194,0.0276 0.16398,-0.0537 0.10198,-0.0551 0.27836,-0.0579 0.1695,-0.0358 0.21359,-0.0427 0.32936,-0.0841 0.14882,-0.0289 0.12127,-0.0689 0.0648,-0.0303 0.0593,-0.004 0.24253,-0.033 0.42306,-0.10338 0.11162,-0.0344 0.19568,-0.01 0.23702,-0.0317 0.21911,-0.0717 0.23565,-0.051 0.24391,-0.0868 0.30317,-0.1378 0.17087,-0.0758 0.21222,-0.11575 0.22875,-0.0441 0.19293,-0.11163 0.2067,-0.0703 0.25908,-0.12676 0.22875,-0.0786 0.22324,-0.13919 0.25218,-0.14193 0.30317,-0.16123 0.20809,-0.11989 0.1819,-0.15711 0.0923,-0.0372 0.0606,-0.0427 0.14332,-0.0482 0.0758,-0.0606 0.1254,-0.0345 0.113,-0.0193 0.12816,-0.073 0.0661,-0.0455 0.10749,-0.0565 0.61874,-0.39825 0.43683,-0.27834 0.52228,-0.33626 0.26458,-0.21085 0.18191,-0.14882 0.14882,-0.21082 0.19155,-0.2453 0.17777,-0.21497 0.073,-0.0675 0.11024,-0.21084 0.31144,-0.31282 0.25493,-0.35414 0.21084,-0.32661 0.18741,-0.16811 0.0717,-0.17365 0.17226,-0.16261 0.39412,-0.77721 0.16812,-0.11989 0.20119,-0.33073 0.24392,-0.41341 0.3073,-0.54708 0.22186,-0.23976 0.4644,-0.81582 0.31695,-0.58565 0.15434,-0.17227 0.10473,-0.16812 0.0524,-0.13917 0.0923,-0.2453 0.16261,-0.28249 0.1006,-0.25493 0.01,-0.0951 0.20671,-0.32247 0.25907,-0.3638 0.19706,-0.47541 0.3073,-0.70556 0.21084,-0.64768 0.31006,-0.64907 0.24116,-0.57187 0.01,-0.0496 -0.0179,-0.0565 -0.17501,-0.35964 0.0758,-0.19294 0.59118,-0.24667 0.0441,-0.0358 0.022,-0.0441 0.12678,-0.45474 0.0675,-0.42307 0.0923,-0.37759 0.18328,-0.50297 0.17501,-0.51676 0.38447,-0.68765 0.12954,-0.24254 0.11714,-0.27146 0.14193,-0.3197 0.11576,-0.24805 0.12402,-0.27011 0.12402,-0.28387 0.12127,-0.30179 0.0896,-0.24942 0.0827,-0.37896 0.0758,-0.45061 0.12678,-0.45614 0.10335,-0.43961 0.0965,-0.44371 0.0772,-0.50437 0.0289,-0.44098 0.0138,-0.54708 0.0152,-0.38859 0.0193,-0.48507 0.13919,-0.27424 -0.0524,-0.15295 -0.01,-0.41204 0.0427,-0.2508 0.01,-0.0951 -0.11989,-0.21635 -0.01,-0.23013 0.10059,-0.15849 0.0427,-0.29212 -0.0758,-0.47543 -0.14883,-0.52779 0.0648,-0.38034 -0.0303,-0.288 -0.0413,-1.07903 -0.13367,-1.61091 -0.0868,-0.0786 -0.073,-0.0137 -0.004,-0.12266 0.11851,-0.006 0.0317,-0.04 -0.0593,-0.66837 0.0785,-0.17362 0.0138,-0.19706 -0.13368,-0.70003 0.0965,-1.06662 -0.0772,-0.75515 -0.19017,-0.96049 -0.0744,-0.33488 0.0193,-0.1447 0.0427,-0.0275 -0.0606,-0.0551 -0.0537,-0.36517 -0.091,-0.19431 -0.0317,-0.25771 -0.19706,-0.64903 -0.0896,-0.062 -0.0593,-0.0827 -0.0372,-0.0565 -0.0179,-0.0648 -0.0248,-0.0606 -0.0799,-0.19843 -0.0854,-0.24392 -0.17226,-0.42857 -0.25355,-0.58566 -0.1695,-0.39964 -0.10473,-0.22186 -0.19155,-0.43408 -0.15296,-0.33624 -0.051,-0.113 -0.0538,-0.14608 -0.0689,-0.20119 -0.04,-0.12264 -0.062,-0.1254 -0.0634,-0.10749 -0.0978,-0.1695 -0.0565,-0.0882 -0.0882,-0.16399 -0.0496,-0.10887 -0.0565,-0.15709 -0.0207,-0.0758 -0.0152,-0.0799 -0.0193,-0.0854 -0.0165,-0.10887 -0.0165,-0.0648 -0.0138,-0.062 -0.0124,-0.0634 -0.0152,-0.0606 -0.0165,-0.0551 -0.0276,-0.0496 -0.0262,-0.0427 -0.0317,-0.0606 -0.0703,-0.0785 -0.0551,-0.11851 -0.0551,-0.01 0.003,-0.073 -0.073,-0.14883 -0.0827,-0.15572 -0.0965,-0.22599 -0.0909,-0.10198 -0.0441,-0.18879 -0.0689,-0.0703 -0.0193,-0.0978 -0.11438,-0.41892 -0.0496,-0.17087 -0.0703,-0.13643 -0.12402,-0.0661 -0.0992,-0.1819 -0.0717,-0.0165 -0.0138,-0.0524 v -0.14022 l -0.11438,-0.26872 -0.1819,-0.34037 -0.0758,-0.10336 -0.0868,-0.14194 -0.0482,-0.12402 -0.007,-0.10611 0.0565,-0.15847 -0.0234,-0.24116 -0.12403,-0.5457 -0.0909,-0.24943 -0.0703,-0.41616 -0.11989,-0.41755 -0.12127,-0.44924 -0.0854,-0.41754 -0.10336,-0.39688 -0.0537,-0.39963 -0.10198,-0.39274 -0.0882,-0.42444 -0.0785,-0.33211 0.0289,-0.14193 -0.0992,-0.19293 -0.14745,-0.33211 -0.10473,-0.35277 -0.0868,-0.17088 -0.15296,-0.12678 -0.0689,-0.17501 -0.0372,-0.25769 0.003,-0.22187 -0.007,-0.21084 -0.0482,-0.21222 -0.0482,-0.17225 -0.0413,-0.27561 -0.0152,-0.36242 -0.0234,-0.35967 0.01,-0.35002 -0.0152,-0.36243 -0.0634,-0.46164 -0.0551,-0.41479 -0.0303,-0.45061 -0.0303,-0.3142 0.011,-0.5333 -0.0482,-0.45337 0.0234,-0.2136 0.04,-0.24667 0.0124,-0.48369 0.0179,-0.48507 -0.001,-0.55122 -0.0537,-0.54294 -0.003,-0.22738 0.0386,-0.23289 -0.0482,-0.17914 -0.007,-0.452 -0.0289,-0.36931 0.0772,-0.28801 -0.0276,-0.0868 0.14746,-0.68075 -0.11163,-0.26045 0.0165,-0.15296 0.0772,-0.38309 0.0482,-0.26872 0.0152,-0.1571 -0.0152,-0.21359 -0.0179,-0.0992 -0.0785,-0.12678 0.12954,-0.50023 0.0234,-0.21497 -0.0152,-0.15297 0.15848,-0.14194 0.11024,-0.22186 0.10473,-0.26459 0.0937,-0.13504 0.15572,-0.10197 0.15434,-0.2577 -0.0951,-0.20808 -0.20395,-0.0896 -0.16674,0.10886 0.007,0.18328 -0.1006,0.0372 -0.11024,0.0551 -0.12954,0.14331 -0.0537,0.14194 -0.0937,0.004 -0.10198,0.062 -0.11024,0.0138 -0.25632,0.14608 -0.0275,0.0978 0.0496,0.0661 0.26596,0.0248 0.2067,0.16811 0.007,0.2825 -0.22462,0.0248 -0.0909,0.0799 v 0.1943 l -0.0896,0.0345 -0.20671,0.53606 -0.36518,-0.0538 -0.28112,-0.0179 -0.25769,0.0193 -0.29214,0.12677 -0.19707,0.0786 -0.10197,-0.29352 0.0207,-0.0896 -0.003,-0.051 -0.0661,-0.15847 -0.13643,-0.39688 -0.0344,-0.0951 -0.0978,-0.26183 -0.0648,-0.14194 -0.0992,-0.21635 -0.073,-0.22462 -0.0882,-0.14607 -0.0482,-0.0138 -0.0786,-0.022 -0.062,0.0978 -0.0152,0.16812 -0.10749,0.0965 -0.15296,0.0854 -0.0179,0.12678 0.0689,0.0896 -0.01,0.0565 -0.12126,-0.0606 -0.15848,-0.0896 -0.0606,-0.13367 0.10749,-0.16123 0.01,-0.16261 -0.0455,-0.15985 0.0124,-0.0662 0.0717,-0.0138 0.0841,-0.0951 0.003,-0.19155 -0.0661,-0.4575 -0.18052,-0.26046 -0.0868,-0.0648 -0.11438,-0.0923 -0.0923,-0.11989 -0.36518,-0.6022 -0.11576,-0.26872 -0.0689,-0.062 -0.0496,-0.0951 -0.17777,-0.4644 -0.0248,-0.21498 -0.0413,-0.44097 -0.0358,-0.40514 -0.001,-0.0565 -0.003,-0.073 0.001,-0.0469 -0.011,-0.12816 v -0.0606 l -0.0358,-0.0455 -0.0661,-0.0565 -0.003,-0.051 -0.0124,-0.0703 -0.011,-0.0234 -0.0262,-0.004 -0.0482,0.0303 -0.0193,-0.008 -0.0207,-0.051 -0.008,-0.0289 -0.0124,-0.0634 -0.007,-0.0441 -0.0138,-0.0675 -0.0317,-0.062 -0.0207,-0.0193 -0.0675,-0.0455 -0.0606,-0.0248 -0.0427,-0.0138 -0.0386,-0.003 -0.0358,0.005 -0.0496,0.006 -0.0524,0.005 -0.04,-0.004 -0.0689,-0.004 -0.0496,0.006 -0.0579,0.0248 -0.0896,0.0634 -0.0965,0.0661 -0.0841,0.0689 -0.0786,0.073 -0.007,0.0427 -0.0496,0.0469 -0.0744,0.0234 -0.0372,0.007 -0.0469,0.0207 -0.0275,0.0331 -0.0152,0.0386 -0.0124,0.0372 0.011,0.0524 0.0207,0.0124 0.0138,0.0193 0.0289,0.0179 -0.0124,0.073 -0.011,0.0303 -0.0138,0.0772 -0.01,0.0276 -0.007,0.0427 -0.006,0.0289 -0.0165,0.0345 -0.008,0.0331 0.0165,0.0207 0.007,0.0427 0.003,0.0551 -0.0262,0.0413 -0.051,0.0634 -0.003,0.0413 -0.0303,0.0179 -0.001,0.0661 -0.0165,0.0317 -0.003,0.0234 -0.0152,0.0386 -0.0441,0.0468 -0.0372,0.0978 -0.0193,0.0565 -0.0207,0.0496 -0.0717,0.0813 -0.16812,0.24253 -0.35691,0.36243 -0.16812,0.14882 -0.23565,0.19569 -0.29214,0.32246 -0.23151,0.12402 -0.14469,0.0675 -0.20809,0.0965 -0.18466,0.0469 -0.16949,0.008 -0.78686,-0.41892 -0.84061,-0.33349 -0.0138,-0.26182 -0.41341,-0.44786 -0.38034,-0.62012 -0.0606,-0.0551 -0.13643,-0.12265 -0.29766,-0.36656 0.0276,-0.96324 -0.0124,-0.21636 0.0496,-0.27836 0.20808,-0.28388 z m 0,0"
       id="path11198"
       inkscape:connector-curvature="0" />
    <path
       transform="translate(55.110147,-163.83069)"
       style="fill:#d25353;fill-opacity:1;fill-rule:evenodd;stroke:none;stroke-width:0.35277775"
       d="m 88.127385,340.58404 0.0441,0.30179 v 0.24805 l 0.02893,0.27836 0.166743,0.81166 0.02893,0.42995 0.07579,0.17639 0.0372,0.27561 0.125402,0.42444 0.158475,0.38722 0.289388,0.0372 -0.0083,-0.0744 -0.117134,0.007 -0.0689,-0.0648 -0.0028,-0.0744 0.163986,0.0799 0.615984,-0.0138 0.235646,-0.12127 2.003663,-0.88746 1.602661,-0.30592 1.036283,-0.22187 0.666972,0.0152 0.676619,0.0565 0.370692,0.0661 0.31419,0.14745 0.665594,0.0455 0.559482,-0.0744 0.621496,-0.10335 0.990809,-0.0537 0.993564,-0.0717 0.77722,0.0717 0.85713,0.15847 0.18466,-0.004 0.339,0.0882 0.36105,0.0317 0.58704,0.20395 0.33074,0.0565 0.33624,0.0827 0.66007,0.38309 0.4396,0.15986 0.4768,0.2825 0.46302,0.28525 0.4272,0.24253 0.34588,0.3142 0.9164,0.63252 0.55948,0.47956 0.29628,0.24804 0.32246,0.18328 0.25494,0.20395 0.14469,0.11989 0.0896,0.14745 0.42856,0.18879 0.71934,0.16261 0.69178,0.16536 0.57464,0.0827 1.14101,-0.04 1.06247,-0.0579 1.70601,-0.32247 0.87919,-0.23977 0.7841,-0.3073 2.47909,-1.23611 0.9288,-0.70555 0.83647,-0.73587 0.86678,-0.76344 0.73036,-0.81855 0.8158,-1.21681 0.35554,-0.67937 0.31006,-0.63528 0.39274,-1.44143 0.226,-0.76067 0.0744,-0.70556 0.0234,-1.11345 -0.19568,-1.09692 -0.43133,-1.32706 -0.29352,-0.54707 -0.3638,-0.18328 -0.18604,-0.35278 -0.11437,-0.24805 -0.0234,-0.17501 -0.15709,-0.4079 -0.2384,-0.67386 -0.35278,-0.47956 -1.44832,-1.74321 -0.36794,-0.34176 -0.34726,-0.2949 -0.47129,-0.43546 -0.57051,-0.50849 -0.32659,-0.2384 -1.05558,-0.791 -0.226,-0.12678 -0.0441,-0.0138 -0.04,-0.0234 -0.0813,-0.0482 -0.0799,-0.0524 -0.10887,-0.0455 -0.10335,-0.0551 -0.0978,-0.0386 -0.13918,-0.0827 -0.12954,-0.0813 -0.16674,-0.0882 -0.14745,-0.073 -0.13367,-0.0854 -0.15847,-0.0896 -0.0606,-0.0289 -0.18466,-0.0937 -0.10334,-0.0469 -0.1006,-0.0496 -0.0703,-0.0386 -0.062,-0.0386 -0.14331,-0.0551 -0.10886,-0.0592 -0.11163,-0.0827 -0.17363,-0.10611 -0.13229,-0.0565 -0.0772,-0.0248 -0.0565,-0.0179 -0.062,-0.0193 -0.113,-0.0262 -0.0965,-0.0207 -0.11575,-0.0165 -0.0951,-0.0248 -0.12954,-0.0372 -0.0841,-0.0234 -0.073,-0.0248 -0.0648,-0.011 -0.0868,-0.0193 -0.0868,-0.0138 -0.0896,-0.0165 -0.31144,-0.0703 -0.33899,-0.0992 -0.22738,-0.0482 -0.37069,-0.0703 -0.28939,-0.0179 -0.2384,-0.0152 -0.14607,-0.007 -0.11438,-0.006 -0.2577,0.01 -0.0482,0.001 -0.14608,-0.008 -0.19292,-0.022 -0.15021,-0.0152 -0.17501,-0.011 -0.11713,-0.005 -0.10611,-0.003 h -0.15021 l -0.14193,-0.01 -0.16537,0.004 -0.16536,0.008 -0.15297,0.01 -0.16674,0.001 -0.21911,0.011 -0.27698,0.003 -0.0965,-0.003 -0.13368,-0.007 -0.24115,-0.0262 -0.19293,-0.001 -0.40514,0.0276 -0.0689,0.004 -0.58429,0.0703 -0.66973,0.0923 -0.21773,0.0165 -0.23289,-0.003 -0.2508,0.008 -0.12953,0.008 h -0.17502 l -0.11162,0.011 -0.14469,0.0248 -0.13505,0.0248 -0.74689,0.16399 -0.62012,0.19155 -0.70556,0.37482 -0.32797,0.18742 -0.22738,0.113 -0.27285,0.0524 -0.32384,0.006 -0.22186,0.0248 -0.0565,0.0427 -0.04,0.0358 -0.0413,0.0579 -0.13781,0.23289 -0.16399,0.20394 -0.1943,0.16399 -0.23978,0.13505 -0.26871,0.13091 -0.19982,0.0634 -0.17501,0.0593 -0.12403,0.0482 -0.37344,0.20395 -0.44511,0.17776 -0.12953,0.0276 -0.147455,0.0138 -0.208084,-0.008 -0.425813,-0.0138 -0.205327,0.0331 -0.151585,0.0441 -0.13367,0.0427 -0.194305,0.0675 -0.05374,0.0248 -0.08819,0.0441 -0.0813,0.0317 -0.358289,0.0923 -0.271478,0.0524 -0.03996,0.0179 -0.03996,0.0482 -0.01929,0.01 -0.117134,0.0138 -0.02066,0.0138 -0.03996,0.0648 -0.01101,0.0138 h -0.01654 l -0.04823,-0.01 -0.05099,-0.008 -0.06614,0.0193 -0.0565,0.0317 -0.05098,0.0234 -0.152966,0.0331 -0.09095,0.0179 -0.344509,0.022 -0.113003,0.0179 -0.213593,0.0138 -0.122645,-0.005 -0.125402,0.005 -0.06201,0.008 -0.112998,0.0289 -0.08957,0.0275 -0.146071,0.0482 -0.04961,0.0138 -0.06339,0.0193 -0.05099,0.0124 -0.07993,0.022 -0.239782,0.0786 -0.197056,0.0827 -0.18328,0.0234 -0.108862,0.0537 -0.07028,0.0786 -0.0083,0.0234 -0.0028,0.0289 0.02479,0.0331 -0.0013,0.0179 -0.0096,0.022 -0.0565,0.0496 -0.01238,0.0124 -0.01654,0.0289 -0.03583,0.16399 -0.07717,0.35691 -0.03306,0.16537 0.01101,0.17776 v 0.04 l 0.0028,0.0317 0.05098,0.0565 0.0013,0.0124 -0.0069,0.007 -0.01241,0.003 -0.02617,-0.003 -0.0303,0.01 -0.02617,0.0289 -0.02066,0.0372 -0.0069,0.04 0.03996,0.0965 0.0069,0.051 -0.01654,0.0331 -0.02755,0.0276 -0.02066,0.0358 -0.02617,0.0551 -0.203949,0.41066 -1.247127,2.37711 -0.111622,0.17915 -0.07441,0.14194 -0.115756,0.3197 -0.139181,0.28663 -0.143317,0.17364 -0.141936,0.15296 -0.0882,0.0827 -0.166743,0.25631 -0.107487,0.2577 -0.128159,0.27561 -0.172254,0.20532 -0.07579,0.0965 -0.0303,0.0689 -0.0096,0.0772 -0.63941,1.3174 -0.232889,0.40239 -0.103354,0.10886 -0.166743,0.0703 -0.137803,0.12127 -0.170879,0.17639 -0.4079,0.63527 -0.150204,0.32247 -0.300413,0.30592 -0.03305,0.0717 0.01101,0.0992 -0.08406,0.17363 -0.170878,0.35553 -0.177763,0.30593 -0.03168,0.19017 -0.02617,0.18879 -0.04686,0.17915 -0.07166,0.20257 -0.08406,0.19155 -0.06477,0.2508 z m 0.735873,-0.27699 0.297656,-0.89434 0.436838,-0.67662 0.522276,-0.91226 0.512633,-0.0441 0.424434,-0.11713 0.409279,0.46715 0.391361,1.00321 0.06752,0.63115 -0.01101,0.70142 -0.07717,0.51814 0.344508,0.30455 0.09233,0.17639 -0.05926,0.22048 -0.425812,0.10611 -1.135505,0.36656 -1.044553,0.4892 -0.289386,-0.13367 -0.341754,-1.19476 z m 8.10011,1.34634 0.384471,-0.19292 1.226452,-0.39274 1.061093,-0.0179 3.057866,0.19844 0.78962,0.1502 0.62149,0.2508 0.77033,0.40514 0.71658,0.25357 0.49195,0.33072 0.81856,0.0455 0.35002,0.27836 1.12724,0.42444 0.43821,0.31419 0.16261,0.21222 0.38034,0.1254 0.20808,0.0606 0.34314,0.37344 0.0207,0.0813 0.0455,0.0193 0.0551,-0.0331 0.15572,-0.0785 0.42168,-0.17087 0.31833,0.0248 0.3638,0.53054 1.17823,-0.0248 2.30959,0.48644 1.37941,0.54295 -1.13136,0.54295 -1.7763,0.0813 -0.0317,0.0482 -0.11162,0.008 -0.27561,0.0579 -0.20533,-0.003 -0.46991,-0.007 -0.0606,0.0344 -0.28387,-0.004 -0.0841,-0.0331 -0.0841,0.0358 -0.35692,-0.0331 -0.19292,-0.0455 -0.0703,0.011 -0.0455,-0.0345 -0.0951,0.0482 -0.11576,-0.0744 -0.25769,-0.022 -0.0772,-0.0813 -0.10887,0.0303 -0.22048,-0.0703 -0.76895,-0.46716 -0.0537,-0.22737 -0.0593,-0.0138 -0.14056,0.0524 -0.0579,-0.0978 -0.61461,-0.53193 -0.0138,-0.13091 -0.13504,10e-4 -0.12403,-0.13505 -0.01,-0.0772 -0.0165,-0.0262 -0.15847,-0.0441 -0.007,-0.0165 -0.003,-0.0965 -0.0234,-0.0358 -0.091,-0.0413 -0.12265,-0.0675 -0.0854,-0.0138 -0.0854,-0.0152 -0.0413,-0.0951 -0.0372,10e-4 -0.022,-0.0234 -0.0813,-0.0317 -0.0152,-0.0661 -0.022,-0.0234 -0.0662,-0.0675 -0.10749,-0.062 -0.005,-0.0606 -0.0234,-0.007 -0.005,-0.0551 -0.008,-0.006 -0.0661,-0.007 -0.073,0.0289 -0.16812,-0.0978 0.01,-0.14331 -0.11989,-0.0565 -0.11438,0.0152 -0.1254,-0.11162 -0.51952,-0.35002 -0.46578,-0.13091 -1.90445,-0.75104 -1.73771,-0.47542 -0.55948,-0.12127 -1.435914,-0.0978 -1.098296,-0.0372 -0.577401,0.14746 -0.35829,-0.0551 -0.380336,0.0675 z m 0,0"
       id="path11208"
       inkscape:connector-curvature="0" />
  </g>
</svg>
